<svg xmlns="http://www.w3.org/2000/svg" width="480" height="200"><g style="display:inline" transform="translate(98.796 41.129)"><g style="stroke-width:.857633"><path d="M-53.298 82.791c2.51-.863 1.16-.572 4.07-.772 1.937.404 2.96.322 4.455 1.804 2.048 2.03 2.124 5.137 1.092 7.67-.36.882-.984 1.63-1.475 2.446-.699.62-1.31 1.356-2.096 1.861-2.836 1.822-6.995 2.14-9.497-.458-.502-.521-.76-1.231-1.14-1.847-.083-.792-.301-1.58-.248-2.374.226-3.363 2.852-6.429 5.668-8.023M71.29 113.239s-2.477.782-3.457 1.069c-12.357 3.627-24.733 2.623-34.81-4.338-6.606-4.562-10.197-13.025-9.788-21.958.179-3.915 1.721-8.75 3.733-12.184 5.139-8.775 14.658-14.824 23.304-18.259 8.175-3.247 22.17-4.275 30.154-1.673 2.345.731-.685 1.123-.462.48-.084-.62-.074-.516.017-1.146.799-5.491 7.942-11.184 15.694-14.855 15.194-7.195 35.717-7.93 52.518-2.228 6.324 2.146 14.389 6.915 15.964 14.207.414 1.861-.009 4.215-.876 5.978-.961 1.989-2.088.692.785.027.955-.22 2.624-.327 4.135-.372 4.728-.142 11.222.485 16.317 1.954 11.513 3.319 20.708 10.188 24.092 22.133.572 2.02.747 4.304.606 6.663-.318 5.5-2.47 11.452-5.335 14.954-4.579 5.595-12.666 10.184-20.041 12.1-9.333 2.425-21.105 1.798-29.245-.14-1.29-.306-.74-.196-1.685-.461-.178-.001.108-.188-.03-.017-.235.235-.091.1-.355.337-3.447 3.106-9.275 6.283-14.026 8.197-4.35 1.753-10.093 3.283-18.25 4.105-11.927 1.202-23.923-.305-34.242-4.317-2.082-.81-4.602-1.808-6.8-3.037-3.62-2.025-6.614-3.705-9.79-6.282-.904-.733-.94-.75-.94-.75M-20.155 82.802c.821-.536 1.609-1.13 2.465-1.61 2.232-1.252 2.829-1.311 5.206-2.062 2.094-.296 2.62-.532 4.698-.218 3.065.463 5.736 2.101 7.844 4.317.47.627.995 1.216 1.409 1.882 1.645 2.652 2.425 5.947 1.931 9.043-.13.82-.413 1.61-.62 2.415C1.81 98.66 1.638 99.374.13 101.2c-2.395 2.901-5.719 4.395-9.392 4.89-.975.01-1.952.103-2.924.031-3.884-.287-7.64-1.766-10.376-4.59-.618-.637-1.108-1.386-1.662-2.08-.396-.752-.852-1.476-1.186-2.257-1.16-2.714-1.562-5.878-.898-8.771.134-.586.38-1.14.571-1.711.31-.52.575-1.071.931-1.561 1.335-1.838 3.395-2.936 5.486-3.68" style="display:inline;fill:#e5f6ff;fill-opacity:1;fill-rule:nonzero;stroke:none;stroke-width:.804031;stroke-linecap:round;stroke-linejoin:round;stroke-miterlimit:4;stroke-dasharray:none;stroke-dashoffset:0;stroke-opacity:1" transform="translate(94.963 248.357) scale(1.166)"/><path d="M-53.299 82.312c2.49-.857 1.29-.597 4.184-.795l.05-.004.044.01c1.908.397 3.055.349 4.6 1.88 2.15 2.13 2.256 5.433 1.142 8.169-.415 1.019-1.076 1.801-1.527 2.548l-.06.1-.085.075c-.643.572-1.283 1.35-2.18 1.925-3.044 1.956-7.354 2.259-9.975-.463-.558-.58-.823-1.32-1.18-1.898l-.042-.069-.01-.09c-.077-.74-.31-1.543-.248-2.46.243-3.623 3.06-6.901 6.024-8.58l.185.875c-2.667 1.51-5.103 4.365-5.31 7.467-.044.646.143 1.39.235 2.197.38.633.63 1.282 1.06 1.728 2.383 2.475 6.39 2.142 9.017.454.651-.419 1.216-1.077 1.929-1.723.516-.837 1.07-1.526 1.362-2.242.95-2.333.906-5.245-1.041-7.173-1.434-1.421-2.329-1.318-4.265-1.717-2.861.193-1.393-.121-3.908.744zM71.279 113.722s-2.47.78-3.468 1.072c-12.462 3.658-24.947 2.643-35.103-4.372-6.7-4.627-10.34-13.188-9.924-22.28.185-4.034 1.745-8.93 3.828-12.487 5.27-8.998 14.917-15.093 23.637-18.557 8.33-3.309 22.311-4.331 30.415-1.69 2.388.746-1.764 3.217-1.162 1.072-.066-.514-.05-.6.034-1.174.863-5.93 8.25-11.678 16.084-15.388 15.357-7.273 35.938-7.987 52.816-2.258 6.378 2.164 14.532 6.903 16.162 14.441.401 1.808.078 3.998-.69 5.817.066-.018.134-.035.205-.052 1.036-.24 2.695-.337 4.216-.383 4.77-.143 11.28.486 16.42 1.967 11.577 3.338 20.872 10.263 24.296 22.348.587 2.075.764 4.41.62 6.816-.325 5.618-2.481 11.663-5.497 15.349-4.728 5.777-12.894 10.378-20.363 12.318-9.444 2.453-21.235 1.815-29.426-.134-1.293-.308-.76-.203-1.697-.466l.088.012c-.434-.002.69-.61.399-.252l-.025.03-.026.027c-.23.23-.124.132-.383.365-3.566 3.212-9.41 6.38-14.21 8.314-4.401 1.773-10.188 3.312-18.375 4.137-11.988 1.208-24.031-.306-34.399-4.336-2.083-.81-4.614-1.812-6.835-3.055-3.62-2.024-6.633-3.715-9.83-6.309l-.877-.71.537-.954s.097.053 1.002.787c3.156 2.56 6.13 4.23 9.751 6.255 2.175 1.216 4.683 2.212 6.763 3.02 10.27 3.994 22.22 5.494 34.088 4.299 8.126-.82 13.824-2.342 18.124-4.074 4.701-1.894 10.512-5.08 13.842-8.08.268-.241.085-.068.326-.31l-.051.057c-.015.018.538-.218.458-.218h.047l.042.012c.953.268.386.153 1.673.459 8.089 1.925 19.841 2.54 29.064.144 7.28-1.891 15.29-6.468 19.719-11.88 2.716-3.32 4.86-9.177 5.172-14.56.138-2.312-.033-4.545-.59-6.51-3.344-11.806-12.44-18.619-23.887-21.918-5.052-1.457-11.53-2.083-16.215-1.943-1.502.045-3.18.16-4.055.362-2.723.63-1.929 1.03-1.122-.64l.001-.003.001-.002c.794-1.613 1.203-3.867.818-5.6v-.002c-1.522-7.044-9.498-11.843-15.768-13.971-16.723-5.676-37.189-4.92-52.22 2.198-7.67 3.632-14.569 9.27-15.303 14.323-.094.644-.1.38-.016 1.003l.017.124-.048.137c.386-1.113 2.056.667-.19-.034h-.003c-7.864-2.564-21.873-1.53-29.891 1.655-8.572 3.405-17.963 9.408-22.972 17.961-1.94 3.312-3.465 8.086-3.639 11.88-.401 8.775 3.141 17.14 9.652 21.638 10 6.907 22.266 7.898 34.517 4.302.965-.282 3.448-1.066 3.448-1.066zM-20.281 82.385c.797-.52 1.597-1.125 2.5-1.631 2.265-1.27 2.946-1.361 5.308-2.107l.036-.012.036-.005c2.074-.293 2.695-.537 4.804-.218 3.15.476 5.87 2.15 8.014 4.403l.011.013.011.014c.459.613.991 1.207 1.423 1.904 1.684 2.713 2.499 6.083 1.98 9.34-.142.895-.436 1.707-.632 2.472l-.016.06-.027.06c-.955 2.064-1.2 2.916-2.753 4.797-2.534 3.07-6.014 4.611-9.764 5.116l-.024.003h-.023c-.954.01-1.944.105-2.955.03-3.954-.292-7.776-1.794-10.568-4.676-.643-.664-1.138-1.423-1.68-2.101l-.018-.023-.014-.027c-.388-.737-.85-1.466-1.198-2.282-1.187-2.777-1.613-6.019-.915-9.065.153-.666.413-1.244.59-1.773l.024-.074.041-.069c.287-.48.559-1.054.97-1.619 1.47-2.024 3.654-3.159 5.794-3.92l.01.955c-2.04.726-3.977 1.787-5.177 3.438-.289.398-.537.9-.851 1.433-.199.582-.418 1.09-.53 1.576-.628 2.74-.251 5.827.881 8.477.316.739.761 1.448 1.161 2.206.558.701 1.04 1.432 1.625 2.036 2.679 2.766 6.371 4.221 10.184 4.503.926.069 1.883-.02 2.87-.032 3.588-.487 6.746-1.933 8.997-4.66 1.452-1.758 1.563-2.337 2.518-4.409.214-.82.477-1.567.593-2.296.467-2.935-.277-6.156-1.884-8.746-.391-.63-.906-1.21-1.383-1.846-2.071-2.172-4.69-3.768-7.664-4.218-2.033-.307-2.473-.083-4.556.213-2.361.744-2.88.779-5.068 2.006-.809.454-1.583 1.036-2.429 1.588z" style="stroke-width:.857633" transform="translate(94.963 248.357) scale(1.166)"/></g><rect width="1596.293" height="421.612" x="-162.435" y="-518.426" ry=".714" style="fill:#ffd5d5;stroke:#000;stroke-width:.9375;stroke-linejoin:round;stroke-miterlimit:2;stroke-dasharray:none"/><path d="M40.416-217.795v46.404h278.423v-46.404zM92.126-133.548c-4.949-1.96-10.33-2.897-15.656-2.82-5.225.076-8.812.84-14.022 1.653-11.663 2.722-25.687 5.885-34.727 14.35-1.322 1.238-2.305 2.793-3.458 4.19-.532 1.545-1.356 3.02-1.595 4.636-1.032 6.956 4.057 14.842 8.932 19.293 1.563 1.428 3.388 2.538 5.082 3.807 2.023.964 3.97 2.106 6.069 2.892 9.309 3.49 20.683 3.652 30.552 3.687 2.31-.226 5.714.009 7.621-1.812.616-.588.476-1.179-.165-1.627-.377-.265-.85-.356-1.276-.533-3.21-.766-7.078.291-8.51 3.588-.372.854-.449 1.808-.673 2.712.107 1.174.026 2.38.32 3.522 2.033 7.87 9.193 12.992 16.47 15.624 2.437.882 5.012 1.328 7.518 1.992 14.99 2.296 30.04-.226 44.465-4.423 2.465-.717 4.889-1.57 7.333-2.355 5.183-1.914 10.522-3.707 15.238-6.661 1.505-.943 3.187-2.138 4.101-3.75.217-.381.206-.853.31-1.28-.16-.327-.223-.724-.48-.982-1.38-1.38-4.16-1.194-5.929-1.062-.186.089-.423.112-.56.267-.313.358.072 1.15.202 1.378 1.403 2.463 3.494 4.35 5.524 6.27 7.866 6.547 17.504 9.856 27.558 11.136 2.126.27 4.272.363 6.408.545 8.096.207 17.132-.59 23.23-6.598.712-.702 1.263-1.55 1.895-2.326 1.08-2.071 2.62-5.75 1.08-8.02-.863-.246.092.87.208 1.003 6.892 5.623 16.352 7.093 24.786 8.873 7.927 1.237 16.02 2.907 24.091 1.949 3.387-.402 6.092-1.14 8.631-3.435.808-.73 1.28-1.76 1.92-2.64.201-.964.558-1.907.603-2.89.153-3.389-1.946-6.624-4.743-8.327.38-.034-1.14-.506-1.164-.117-.085 1.345 5.799 3.612 6.476 3.892 11.67 3.772 24.005 4.204 36.162 4.121 7.528-.597 20.45-1.52 24.474-9.398.519-1.017.562-2.213.843-3.32-.15-1.19-.165-2.404-.448-3.57-1.2-4.942-4.76-11.303-7.94-15.254-.764-.95-1.644-1.798-2.465-2.697-2.313-1.955-6.751-5.057-10.066-3.948-.059.077-.258.23-.099.36.738.6 2.48-.876 2.918-1.155 4.376-3.563 7.642-8.777 8.108-14.525.128-1.575-.169-3.155-.253-4.733-.578-1.453-.892-3.04-1.733-4.358-5.565-8.718-19.927-9.79-29.074-10.806-11.638-.69-23.514-1.043-34.937 1.736-1.97.48-3.886 1.165-5.828 1.748-4.21 1.589-8.6 3.343-11.693 6.778-1.049 1.165-2.047 2.671-1.85 4.348.07.602.491 1.108.737 1.662 1.34 1.444 6.074 3.609 6.624.15.114-.714-.113-1.441-.17-2.162-.497-.965-.833-2.031-1.49-2.897-5.299-6.988-15.17-10.18-23.368-11.829-2.9-.583-5.856-.86-8.784-1.29-13.834-.935-28.131-.5-41.384 4.019-1.82.62-3.558 1.463-5.338 2.194-2.186 1.157-10.134 5.546-6.698 9.24.29.313.716.461 1.075.692 1.81.735 3.628-.108 3.836-2.169.055-.536-.029-1.078-.043-1.618-.254-.7-.41-1.443-.761-2.1-3.23-6.051-9.891-9.544-16.06-11.85-2.225-.831-4.54-1.403-6.81-2.105-11.72-2.98-24.013-3.925-36.019-2.152-2.088.308-4.135.852-6.203 1.278-1.808.751-3.731 1.27-5.425 2.254-3.908 2.268-7.078 6.18-6.986 10.903.023 1.216.546 2.371.82 3.557h.003c-.273-1.186-.796-2.34-.82-3.557-.091-4.72 3.078-8.632 6.984-10.9 1.694-.983 3.617-1.502 5.425-2.254 2.068-.426 4.115-.97 6.203-1.278 12.005-1.772 24.297-.827 36.018 2.152 2.27.702 4.584 1.274 6.81 2.106 6.167 2.305 12.827 5.797 16.057 11.847.35.657.507 1.4.76 2.1.015.539.098 1.08.044 1.616-.208 2.059-2.023 2.901-3.831 2.167-.358-.23-.784-.378-1.074-.69-3.435-3.692 4.513-8.08 6.697-9.236 1.78-.731 3.517-1.573 5.338-2.194 13.251-4.518 27.548-4.953 41.382-4.018 2.928.43 5.883.707 8.784 1.29 8.197 1.648 18.066 4.84 23.366 11.827.655.865.992 1.93 1.488 2.896.057.72.285 1.446.172 2.159-.549 3.456-5.28 1.293-6.619-.15-.245-.553-.666-1.058-.736-1.66-.197-1.675.8-3.18 1.849-4.345 3.093-3.435 7.482-5.189 11.691-6.778 1.943-.582 3.857-1.268 5.828-1.747 11.423-2.78 23.298-2.426 34.935-1.736 9.147 1.015 23.507 2.087 29.072 10.803.84 1.318 1.155 2.905 1.732 4.357.085 1.578.382 3.158.254 4.732-.466 5.748-3.731 10.96-8.106 14.523-.44.28-2.174 1.75-2.913 1.157-.158-.127.039-.28.097-.356 3.312-1.109 7.75 1.995 10.061 3.947.822.9 1.702 1.748 2.465 2.697 3.18 3.951 6.74 10.31 7.94 15.253.283 1.165.298 2.38.447 3.569-.28 1.106-.323 2.301-.842 3.318-4.022 7.877-16.945 8.8-24.47 9.397-12.158.082-24.493-.35-36.161-4.122-.677-.279-6.554-2.544-6.476-3.884.022-.389 1.548.08 1.16.116 2.796 1.702 4.894 4.936 4.741 8.324-.044.982-.4 1.925-.602 2.887-.64.88-1.111 1.91-1.918 2.64-2.54 2.294-5.243 3.032-8.63 3.434-8.071.959-16.163-.712-24.09-1.948-8.433-1.78-17.892-3.25-24.784-8.873-.111-.127-1.07-1.24-.214-.999 1.54 2.267 0 5.948-1.08 8.017-.631.775-1.183 1.624-1.895 2.325-6.096 6.009-15.131 6.805-23.227 6.598-2.136-.182-4.281-.275-6.408-.546-10.052-1.28-19.69-4.588-27.555-11.134-2.03-1.92-4.12-3.807-5.524-6.27-.127-.223-.514-1.017-.202-1.373.136-.155.372-.178.558-.267 1.767-.131 4.545-.318 5.925 1.06.257.258.32.654.48.98-.104.427-.093.898-.31 1.28-.913 1.61-2.594 2.805-4.1 3.748-4.716 2.954-10.054 4.747-15.237 6.66-2.444.785-4.868 1.638-7.333 2.356-14.424 4.197-29.473 6.718-44.463 4.422-2.506-.663-5.08-1.109-7.518-1.99-7.275-2.633-14.434-7.753-16.467-15.622-.294-1.141-.213-2.347-.32-3.52.224-.905.3-1.858.672-2.712 1.431-3.295 5.297-4.353 8.506-3.587.425.177.897.268 1.275.532.64.446.78 1.034.166 1.622-1.907 1.82-5.311 1.585-7.62 1.811-9.868-.035-21.242-.197-30.55-3.686-2.099-.786-4.046-1.928-6.068-2.892-1.694-1.269-3.52-2.379-5.082-3.806-4.874-4.45-9.963-12.335-8.932-19.29.24-1.616 1.064-3.09 1.595-4.636 1.153-1.395 2.136-2.95 3.457-4.187 9.04-8.465 23.064-11.628 34.726-14.35 5.21-.814 8.796-1.578 14.02-1.653 5.327-.078 10.707.859 15.655 2.819l.001-.003z" style="fill:#ffd5d5;stroke:#000;stroke-width:.9375;stroke-linejoin:round;stroke-miterlimit:2;stroke-dasharray:none"/><path d="M114.32 36.37c.262-1.957 1.067-3.92 3.12-6.729 4.144-5.666 10.806-10.896 18.772-14.184 10.956-4.524 22.688-5.197 34.611-4.162 12.589 1.093 22.559 5.693 31.097 11.625 5.507 3.826 12.824 11.98 13.343 18.4.238 2.935-1.452.822-1.462-1.118-.013-2.83 1.628-5.776 4.503-8.84 4.272-4.554 10.358-8.604 15.953-10.79 7.474-2.921 14.719-4.305 21.905-4.454 6.743-.14 13.425.737 20.18 2.394 13.667 3.353 25.295 11.522 29.805 21.042.39.825.665 1.562.816 2.22.95 4.149-3.616 2.733-2.313-.545.922-2.32 4.803-4.264 7.322-5.343 10.421-4.464 22.371-4.308 32.852.151 8.968 3.816 16.61 10.99 20.186 20 3.608 9.092 3.387 20.2-.975 29.238-5.54 11.479-16.532 19.27-29.343 23.151-12.858 3.896-24.938 3.795-37.802-.959-6.028-2.228-10.762-5.062-14.338-9.215-1.237-1.437-2.484-4.76-.165-3.396 3.256 1.916 1.617 6.377-.579 9.3-6.152 8.188-15.786 12.436-25.14 14.139-10.962 1.995-22.79 1.885-33.427-1.873-8.686-3.07-16.703-8.598-22.803-15.849-1.489-1.77-5.968-9.272-1.722-6.72 3.685 2.215.63 6.08-2.244 8.352-7.59 6.003-16.653 9.58-26.499 11.039-12.233 1.811-27.505.923-38.636-4.401-5.778-2.765-11.772-7.315-16.507-13.99-3.08-4.34-2.473-8.83.107-5.411 1.213 1.607.952 3.166-1.501 4.751-5.968 3.857-12.206 5.255-18.542 5.688-7.936.543-16.34-.723-24.01-5.357-4.455-2.692-9.756-8.629-11.834-17.148-1.781-7.307-.38-17.852 2.145-23.26 5.463-11.696 13.481-18.243 24.038-22.145 6.637-2.454 17.027-3.218 25.36-1.032 2.34.614 5.196 1.64 7.269 2.55" style="fill:#e5f6ff;fill-opacity:1;stroke:#000;stroke-width:1;stroke-linejoin:round;stroke-miterlimit:2;stroke-dasharray:none"/><path d="M487.178 346.62c1.13.4 2.98.905 2.86 2.537-.192 2.58-3.817 3.677-5.537 4.564-1.526.476-3.026 1.048-4.579 1.43-3.755.92-8.892 1.617-12.669 1.962-4.579.417-10.667.666-15.251.517-2.51-.081-5.009-.364-7.513-.545-2.324-.34-4.67-.559-6.973-1.016-6.03-1.198-13.631-3.542-17.177-9.064-.625-.973-.904-2.13-1.356-3.195-.056-1.164-.3-2.334-.168-3.492.146-1.288.532-2.55.993-3.762 2.293-6.037 7-10.717 11.814-14.807 3.491-2.485 4.948-3.7 8.763-5.698 6.49-3.4 13.663-5.282 20.877-6.336 5.155-.637 5.376-.759 10.48-1.03 3.826-.202 7.785-.39 11.524.613" style="fill:#ffd5d5;stroke:#000;stroke-width:.9375;stroke-linejoin:round;stroke-miterlimit:2;stroke-dasharray:none"/><path d="M567.079 351.994c2.337 1.783 3.086 2.606 1.04 5.357-.604.512-1.158 1.092-1.813 1.537-6.902 4.687-15.707 5.229-23.707 6.256-6.666.455-13.29.796-19.976.67-4.268-.079-8.978-.27-13.216-.855-2.022-.28-4.015-.747-6.022-1.12-1.83-.568-3.696-1.026-5.488-1.703-5.39-2.037-10.77-5.31-14.149-10.096-.458-.65-.765-1.393-1.148-2.09-.173-1.09-.52-1.681.094-2.644.883-1.381 3.235-.895 4.484-.687" style="fill:#ffd5d5;stroke:#000;stroke-width:.9375;stroke-linejoin:round;stroke-miterlimit:2;stroke-dasharray:none"/><path d="M642.976 354.255c3.05 2.473 3.238 4.207 1.035 7.542-.624.758-1.192 1.564-1.87 2.273-5.395 5.633-12.776 8.163-20.295 9.486-1.818.291-3.628.644-5.455.873-8.492 1.064-17.187.782-25.45-1.548-1.463-.558-2.956-1.044-4.39-1.673-6.323-2.777-12.1-6.852-16.972-11.723-1.926-2.335-4.136-4.842-4.309-8.025.002-.095-.02-.194.007-.285.038-.128 1.841.689 1.802.819" style="fill:#ffd5d5;stroke:#000;stroke-width:.9375;stroke-linejoin:round;stroke-miterlimit:2;stroke-dasharray:none"/><path d="M669.49 312.39c-.916-1.309 2.124-3.946 2.89-4.694 5.07-3.45 10.647-4.948 16.796-4.864 1.394.074 2.793.079 4.18.222 7.111.734 14.062 2.882 20.125 6.693 2.806 2.166 3.714 2.618 5.99 5.365 3.63 4.383 5.87 9.684 6.683 15.293.173 3.043.432 4.667-.034 7.677-.828 5.347-3.743 9.854-7.28 13.825-.99 1.035-1.938 2.113-2.971 3.106-4.967 4.778-10.817 8.587-17.138 11.306-1.352.446-2.683.957-4.055 1.338-7.396 2.056-15.083 2.158-22.667 1.288-1.482-.217-2.973-.382-4.446-.652-6.523-1.195-12.821-3.329-18.432-6.913-2.78-1.935-5.939-3.842-7.502-6.978" style="fill:#ffd5d5;stroke:#000;stroke-width:.9375;stroke-linejoin:round;stroke-miterlimit:2;stroke-dasharray:none"/><path d="M585.744 311.445c-.196-.03-.36-.163-.54-.244-2.331-1.845-3.83-4.904-2.92-7.923.241-.8.759-1.487 1.138-2.23.749-.65 1.43-1.384 2.246-1.946 2.395-1.651 5.123-2.747 7.828-3.755a88.477 88.477 0 0 1 16.76-4.449c1.827-.23 3.647-.52 5.48-.688 8.83-.812 17.826-.2 26.503 1.546 1.664.455 3.343.855 4.991 1.364 6.488 2.005 12.772 4.897 18.414 8.678 1.723 1.285 4.514 3.091 5.142 5.338.187.673.07 1.518.019 2.198-.141.876-.376 2.688-1.316 3.056" style="fill:#ffd5d5;stroke:#000;stroke-width:.9375;stroke-linejoin:round;stroke-miterlimit:2;stroke-dasharray:none"/><path d="M491.065 310.081c-.32-.544-.768-1.359-.866-2.114-.31-2.383.601-4.94 1.647-6.992 2.564-5.028 6.618-8.74 11.32-11.746 5.143-2.607 5.887-3.375 11.544-4.685 8.132-1.884 16.588-1.24 24.842-1.04 2.025.167 4.056.269 6.075.5 9.304 1.066 18.527 3.518 26.726 8.122 1.248.894 2.551 1.716 3.746 2.681 4.111 3.322 7.368 7.524 9.177 12.504.375 1.07.97 2.318.93 3.49-.008.254-.076.702-.462.644" style="fill:#ffd5d5;stroke:#000;stroke-width:.9375;stroke-linejoin:round;stroke-miterlimit:2;stroke-dasharray:none"/><path d="M237.866-58.612c3.79 1.538 1.273 4.973-1.836 6.442-7.305 3.452-18.12 5.086-27.191 3.784-7.595-1.316-15.582-4.353-20.378-11.478-3.876-5.25-5.082-12.194-4.218-18.818 1.4-10.733 7.17-18.283 15.004-23.392 12.363-8.063 24.798-8.416 40.393-8.25" style="fill:none;stroke:#000;stroke-width:.937499;stroke-linejoin:round;stroke-miterlimit:2;stroke-dasharray:none"/><path d="M547.845 96.28c.11-3.859 4.517-6.591 7.711-7.947 9.02-3.83 18.867-2.875 27.838.39 8.508 3.096 15.522 9.623 18.83 17.466 3.338 7.915 3.67 17.63-1.389 24.9-6.576 9.45-16.248 17.024-27.29 20.31-11.502 3.422-23.398 3.35-35.434-.84-5.64-1.962-10.065-4.446-13.397-8.07-1.153-1.254-2.292-4.168-.142-2.966M-137.682 79.957c-3.774-.095-7.603.305-11.244 1.334-1.154.327-2.276.76-3.414 1.139-6.217 2.582-12.444 5.939-17.108 10.906-.868.923-1.596 1.967-2.394 2.951-.572 1.059-1.262 2.062-1.717 3.176-1.336 3.268-1.52 6.85-.691 10.263.711 2.93 1.48 4.009 2.868 6.688 3.18 4.803 7.227 8.988 12.515 11.455 4.064 1.897 5.275 1.821 9.696 2.635 1.838.074 3.675.257 5.514.22 7.376-.15 14.946-1.874 21.614-5.044 1.502-.714 2.91-1.61 4.366-2.415 1.281-1.116 2.672-2.119 3.844-3.35 2.963-3.111 5.226-7.12 5.802-11.423.4-2.997-.071-4.161-.64-7.048-.42-1.035-.749-2.113-1.26-3.107-1.987-3.869-5.365-7.024-8.975-9.36-.922-.596-1.902-1.097-2.852-1.645-4.814-2.338-9.79-4.6-15.178-5.154-.972-.1-1.953-.071-2.929-.107l-2.44.21.062.706 2.353-.208c.946.033 1.896.003 2.838.098 5.305.54 10.2 2.774 14.94 5.07.93.535 1.89 1.023 2.791 1.605 3.502 2.259 6.793 5.31 8.734 9.052.494.953.813 1.986 1.22 2.98.554 2.74 1.016 3.89.648 6.737-.538 4.165-2.724 8.043-5.58 11.06-1.134 1.199-2.481 2.176-3.722 3.264-1.43.793-2.813 1.676-4.29 2.379-6.575 3.132-14.042 4.836-21.318 4.992-1.806.039-3.61-.14-5.415-.209-4.32-.786-5.496-.709-9.47-2.552-5.17-2.397-9.123-6.485-12.24-11.168-1.35-2.593-2.095-3.634-2.795-6.465-.807-3.26-.652-6.693.614-9.823.435-1.075 1.096-2.044 1.644-3.066.775-.96 1.481-1.978 2.324-2.878 4.59-4.898 10.73-8.204 16.852-10.753 1.115-.373 2.215-.799 3.346-1.12 3.575-1.014 7.337-1.408 11.043-1.318l.044-.707zM-153.878 134.41c-4.944-.72-9.943-.974-14.936-.86-2.055.046-4.118.053-6.157.307-6.02.752-8.025 1.662-13.792 3.462-1.997.889-4.068 1.628-5.992 2.666-4.246 2.292-8.566 5.588-10.322 10.28-1.21 3.236-.694 4.43-.342 7.74.46 1.271.81 2.588 1.38 3.815 2.593 5.588 7.33 10.636 12.523 13.89 1.482.929 3.097 1.627 4.645 2.44 1.674.586 3.304 1.312 5.02 1.758 4.97 1.292 8.682 1.534 13.895 1.364 5.04-.164 9.81-.823 14.65-2.244 2.018-.592 3.934-1.485 5.902-2.227 4.15-2.41 5.14-2.649 8.544-5.848 1.072-1.007 2.112-2.068 2.975-3.26 1.77-2.444 2.982-5.307 3.804-8.192.37-1.303.545-2.655.817-3.982.046-1.229.203-2.459.138-3.687-.166-3.15-1.197-6.266-3.264-8.687-1.858-2.176-2.812-2.45-5.298-3.933-4.195-2.03-8.569-2.651-13.11-3.35l-.107.7c4.393.674 8.8 1.3 12.855 3.26 2.376 1.4 3.293 1.662 5.073 3.72 1.985 2.294 2.976 5.264 3.143 8.265.066 1.189-.083 2.38-.124 3.57-.263 1.295-.431 2.613-.79 3.884-.784 2.775-1.965 5.6-3.66 7.955-.84 1.165-1.855 2.203-2.9 3.189-3.324 3.134-4.29 3.367-8.347 5.733-1.935.733-3.82 1.614-5.805 2.198-4.793 1.412-9.485 2.06-14.479 2.228-5.135.172-8.78-.06-13.678-1.325-1.683-.435-3.283-1.144-4.925-1.716-1.518-.794-3.1-1.475-4.553-2.383-5.092-3.18-9.716-8.102-12.279-13.563-.55-1.173-.894-2.434-1.34-3.65-.357-3.107-.859-4.27.257-7.319 1.668-4.558 5.886-7.756 9.99-9.975 1.9-1.027 3.944-1.759 5.916-2.638 5.666-1.773 7.702-2.69 13.615-3.43 2.026-.253 4.076-.26 6.117-.307 4.956-.113 9.918.138 14.824.85l.117-.698zM-149.725-8.291c-6.472-.702-13.039-.674-19.45.565-1.781.345-3.526.852-5.289 1.277-1.755.616-3.542 1.145-5.264 1.847-6.135 2.502-12.255 6.179-16.082 11.75-.802 1.167-1.34 2.493-2.011 3.74-.351 1.323-.86 2.614-1.053 3.968-.596 4.183.478 8.435 2.504 12.093 1.955 3.53 3.04 4.238 5.857 7.105 1.314.99 2.564 2.07 3.943 2.969 5.814 3.788 12.649 5.754 19.53 6.325 1.762.146 3.535.094 5.303.142 7.27-.23 14.278-2.137 20.83-5.257 4-1.905 5.573-3.057 9.287-5.411 1.339-1.024 2.727-1.986 4.016-3.073 4.032-3.4 8.147-7.69 9.52-12.957.274-1.049.29-2.148.435-3.222-.113-1.053-.129-2.12-.338-3.158a18.693 18.693 0 0 0-4.596-8.948c-2.36-2.557-3.299-2.86-6.275-4.729-1.356-.59-2.674-1.28-4.07-1.772-6.552-2.314-13.733-2.749-20.623-2.631-1.633.027-3.262.154-4.893.231l.033.708c1.618-.077 3.233-.203 4.852-.23 6.796-.119 13.882.301 20.35 2.572 1.362.479 2.65 1.148 3.975 1.723 1.129.704 2.321 1.316 3.386 2.114 3.615 2.707 6.234 6.604 7.156 11.04.204.981.227 1.991.34 2.987-.13 1.02-.137 2.064-.393 3.06-1.32 5.144-5.362 9.333-9.29 12.65-1.272 1.073-2.643 2.024-3.964 3.037-3.667 2.326-5.236 3.473-9.183 5.356-6.459 3.08-13.366 4.97-20.536 5.201-1.742-.045-3.489.008-5.225-.135-6.762-.556-13.482-2.475-19.201-6.19-1.35-.877-2.576-1.933-3.864-2.9-1.074-1.087-2.245-2.085-3.22-3.261-3.475-4.192-5.718-9.75-4.96-15.259.179-1.3.66-2.542.992-3.814.642-1.205 1.157-2.489 1.927-3.617 3.743-5.477 9.76-9.08 15.776-11.538 1.7-.694 3.464-1.218 5.196-1.827 1.74-.421 3.464-.923 5.223-1.264 6.361-1.234 12.877-1.258 19.299-.56l.05-.707z" style="fill:none;stroke:#000;stroke-width:.9375;stroke-linejoin:round;stroke-miterlimit:2;stroke-dasharray:none"/><path d="M8.543 55.447C4.75 55.014.677 56.836-2.013 60.168c-2.22 2.751-3.793 7.4-2.898 11.53 1.273 5.873 5.259 10.226 9.54 12.305 5.305 2.575 10.484 3.37 16.685 2.549 3.742-.496 7.564-1.599 11.025-3.636 3.628-2.136 7.45-6.305 7.72-11.836.27-5.467-2.596-11.333-5.524-14.768-3.741-4.389-8.688-6.716-13.89-6.95-5.197-.234-11.224 2.22-14.583 5.753" style="fill:#e5f6ff;fill-opacity:1;stroke:#000;stroke-width:1;stroke-linejoin:round;stroke-miterlimit:2;stroke-dasharray:none"/><path d="M-142.679 212.294c-1.509-1.119-3.41-1.332-5.243-1.326-.606.002-1.211.056-1.817.083-.645.091-1.296.145-1.934.273-2.432.491-5.117 1.545-6.842 3.403-.385.415-.663.917-.995 1.375-.194.52-.504 1.01-.584 1.558-.205 1.42.194 2.95.711 4.245a15.117 15.117 0 0 0 2.635 4.274c.586.673 1.276 1.248 1.914 1.872.785.544 1.537 1.138 2.354 1.632 2.517 1.52 5.309 2.503 8.19 3.057 2.64.507 3.755.477 6.449.628 1.115-.025 2.232-.005 3.345-.076 4.262-.274 8.591-1.217 12.554-2.82.906-.365 1.776-.813 2.664-1.22 2.882-1.528 5.611-3.481 7.157-6.443.802-1.538.83-2.188 1.188-3.843.032-.618.116-1.236.095-1.855-.058-1.743-.582-3.428-1.446-4.936-.736-1.284-1.095-1.573-2.071-2.671-1.793-1.7-3.89-2.71-6.284-3.265-1.595-.37-2.295-.384-3.927-.544-2.73-.205-5.466-.019-8.158.45-1.61.28-2.077.417-3.651.796a26.045 26.045 0 0 0-7.727 3.56c-.37.25-.723.527-1.084.792-1.107.877-.596.44-1.541 1.301" style="fill:#e5f6ff;fill-opacity:1;stroke:#000;stroke-width:1.03125;stroke-linejoin:round;stroke-miterlimit:2;stroke-dasharray:none"/><path d="M-42.913 63.995c2.814-3.804 6.753-5.265 10.507-5.278 2.423-.008 5.082.67 6.749 3.56 1.19 2.065 1.622 4.982 1.084 7.577-.736 3.549-3.004 5.87-5.267 7.125-3.952 2.192-8.379 2.67-12.77 1.451-3.316-.92-6.464-2.978-7.282-7.211-.257-1.326-.038-3.226.41-4.464.7-1.938 1.769-3.242 2.976-4.182 1.38-1.075 3.338-1.713 4.905-1.672" style="fill:#e5f6ff;fill-opacity:1;stroke:#000;stroke-width:1;stroke-linejoin:round;stroke-miterlimit:2;stroke-dasharray:none"/><g data-mml-node="math"><g data-mml-node="msup"><g data-mml-node="mn"><path d="m90.491 63.602-.247.095q-.267.095-.762.19-.495.096-1.104.134h-.362v-.876h.362q.895-.038 1.656-.286.762-.247 1.067-.457.304-.209.533-.418.038-.058.228-.058.172 0 .324.115v5.693l.019 5.712q.133.133.229.171.095.038.456.076.362.038 1.181.038h.495v.876h-.21q-.4-.057-3.027-.057-2.59 0-2.99.057h-.228v-.876H89.33q.305 0 .476-.019.171-.019.305-.057.133-.038.152-.038.019 0 .114-.095t.114-.076zM97.784 63.469q1.066-1.543 2.913-1.543.914 0 1.828.495.914.496 1.485 1.752.704 1.58.704 4.341 0 2.951-.818 4.513-.381.8-1.048 1.275-.666.476-1.161.59-.495.115-.971.134-.495 0-.99-.114-.495-.115-1.162-.61-.666-.495-1.047-1.275-.819-1.562-.819-4.513 0-3.313 1.086-5.045zm4.284-.229q-.571-.61-1.352-.61-.8 0-1.371.61-.476.495-.628 1.371-.153.876-.153 3.656 0 3.008.153 3.96.152.952.685 1.504.533.571 1.314.571.762 0 1.295-.57.552-.572.685-1.6t.152-3.865q0-2.761-.152-3.637-.152-.876-.628-1.39z"/></g><g data-mjx-texclass="ORD" data-mml-node="TeXAtom"><g data-mml-node="mn"><path d="m108.971 59.342-.175.067q-.188.067-.538.135-.35.067-.78.094h-.256v-.62h.255q.633-.026 1.171-.201.539-.175.754-.323.216-.148.377-.296.027-.04.162-.04.12 0 .229.08v4.025l.013 4.038q.094.095.162.121.067.027.323.054.255.027.834.027h.35v.62h-.148q-.283-.04-2.14-.04-1.83 0-2.114.04h-.161v-.62h.861q.216 0 .337-.013.121-.014.215-.04.094-.028.108-.028.013 0 .08-.067.068-.067.081-.054zM115.043 65.009q0 .323-.216.538-.215.216-.525.216h-.094q.62 1.063 1.642 1.063.942 0 1.373-.807.256-.445.256-1.723 0-1.387-.363-1.872-.35-.444-.781-.444h-.081q-1.05 0-1.588.916-.054.094-.095.107-.04.014-.202.027-.228 0-.255-.08-.027-.054-.027-2.356v-1.737q0-.673.067-.673.027-.027.054-.027.013 0 .283.108.269.108.74.215.471.108 1.01.108.955 0 1.83-.377.108-.054.175-.054.108 0 .108.243v.175q-1.104 1.305-2.76 1.305-.417 0-.753-.08l-.135-.027v2.315q.256-.189.404-.296.148-.108.484-.216.337-.107.687-.107 1.09 0 1.844.875t.754 2.073q0 1.238-.862 2.113-.861.875-2.1.889-1.09 0-1.75-.727-.66-.727-.66-1.643 0-.323.149-.511.148-.189.31-.242.161-.054.31-.054.336 0 .551.229.216.228.216.538z"/></g></g></g><g data-mml-node="mtext" style="font-family:Regular"><path d="M154.851-459.697h5.396q15.647 36.15 15.647 92.802 36.15-46.4 77.695-69.602 42.085-23.2 90.105-23.2 54.494 0 88.486 24.82 33.992 24.818 47.48 74.457 41.006-49.639 84.17-74.458 43.165-24.82 87.947-24.82 51.258 0 86.868 23.741 35.61 23.74 43.164 53.955 7.554 30.215 7.554 97.659v132.73q0 77.155 2.698 93.881 3.237 16.726 17.265 24.82 14.568 8.093 53.416 8.093V0H642.065v-24.82q35.071 0 49.1-7.553 14.567-8.093 17.805-23.74 3.237-16.187 3.237-95.5v-147.298q0-44.783-5.395-67.444-4.856-22.661-26.438-38.848-21.583-16.186-56.114-16.186-35.07 0-70.68 23.74-35.072 23.74-70.682 71.76v174.275q0 70.681 1.619 89.026 2.158 17.805 15.107 28.057 13.489 9.712 47.48 9.712V0H333.442v-24.82q36.15 0 50.179-7.553 14.567-7.554 17.805-23.2 3.777-15.648 3.777-96.04v-122.479q0-58.271-4.856-84.17-4.317-26.438-27.517-44.782-23.201-18.885-57.732-18.885-33.452 0-68.523 21.582-34.532 21.582-70.681 64.746v183.987q0 72.84 2.158 90.645 2.158 17.805 16.186 26.977 14.029 9.173 50.179 9.173V0H28.057v-24.82q35.61 0 49.638-7.553 14.568-8.093 17.805-23.74 3.238-15.647 3.238-95.5v-132.19q0-75.538-2.698-92.264-2.158-17.266-16.726-25.898-14.028-8.633-51.257-8.633v-24.82q76.616-7.553 126.794-24.28zm886.482 0h5.396q15.647 36.15 15.647 92.802 36.15-46.4 77.695-69.602 42.085-23.2 90.105-23.2 54.494 0 88.486 24.82 33.992 24.818 47.48 74.457 41.006-49.639 84.17-74.458 43.165-24.82 87.947-24.82 51.258 0 86.868 23.741 35.61 23.74 43.164 53.955 7.554 30.215 7.554 97.659v132.73q0 77.155 2.698 93.881 3.237 16.726 17.265 24.82 14.568 8.093 53.416 8.093V0h-220.677v-24.82q35.071 0 49.1-7.553 14.567-8.093 17.805-23.74 3.237-16.187 3.237-95.5v-147.298q0-44.783-5.396-67.444-4.856-22.661-26.438-38.848-21.582-16.186-56.113-16.186-35.07 0-70.681 23.74-35.07 23.74-70.681 71.76v174.275q0 70.681 1.618 89.026 2.159 17.805 15.108 28.057 13.489 9.712 47.48 9.712V0h-213.662v-24.82q36.15 0 50.178-7.553 14.568-7.554 17.806-23.2 3.777-15.648 3.777-96.04v-122.479q0-58.271-4.856-84.17-4.317-26.438-27.518-44.782-23.2-18.885-57.731-18.885-33.453 0-68.523 21.582-34.532 21.582-70.682 64.746v183.987q0 72.84 2.159 90.645 2.158 17.805 16.186 26.977 14.028 9.173 50.178 9.173V0h-216.36v-24.82q35.61 0 49.64-7.553 14.567-8.093 17.804-23.74 3.238-15.647 3.238-95.5v-132.19q0-75.538-2.698-92.264-2.158-17.266-16.726-25.898-14.028-8.633-51.257-8.633v-24.82q76.616-7.553 126.794-24.28z" aria-label="mm" style="font-size:1105px;font-family:Baskerville;-inkscape-font-specification:Baskerville" transform="translate(122.423 74.607) scale(.01904)"/></g><path d="M162.535 68q0-.247.267-.38h12.128q.286.152.286.38 0 .21-.267.362l-6.055.019h-6.054q-.305-.095-.305-.38zm0 3.694q0-.286.305-.38h12.11q.266.19.266.38 0 .247-.286.38h-12.128q-.267-.133-.267-.38z" data-mml-node="mo"/><g data-mml-node="msup"><g data-mml-node="mn"><path d="m185.627 63.602-.248.095q-.266.095-.761.19-.495.096-1.105.134h-.361v-.876h.361q.895-.038 1.657-.286.761-.247 1.066-.457.305-.209.533-.418.038-.058.229-.058.17 0 .323.115v5.693l.02 5.712q.133.133.228.171.095.038.457.076t1.18.038h.495v.876h-.21q-.399-.057-3.027-.057-2.589 0-2.989.057h-.228v-.876h1.218q.305 0 .476-.019.172-.019.305-.057.133-.038.152-.038.02 0 .114-.095.096-.095.115-.076zM192.919 63.469q1.066-1.543 2.913-1.543.914 0 1.828.495.914.496 1.485 1.752.705 1.58.705 4.341 0 2.951-.82 4.513-.38.8-1.046 1.275-.667.476-1.162.59-.495.115-.97.134-.496 0-.99-.114-.496-.115-1.162-.61-.667-.495-1.048-1.275-.818-1.562-.818-4.513 0-3.313 1.085-5.045zm4.284-.229q-.571-.61-1.352-.61-.8 0-1.37.61-.477.495-.629 1.371-.152.876-.152 3.656 0 3.008.152 3.96t.685 1.504q.534.571 1.314.571.762 0 1.295-.57.552-.572.685-1.6.134-1.028.153-3.865 0-2.761-.153-3.637-.152-.876-.628-1.39z"/></g><g data-mjx-texclass="ORD" data-mml-node="TeXAtom"><g data-mml-node="mn"><path d="m204.107 59.342-.175.067q-.189.067-.539.135-.35.067-.78.094h-.256v-.62h.256q.632-.026 1.17-.201.54-.175.755-.323.215-.148.376-.296.027-.04.162-.04.121 0 .229.08v4.025l.013 4.038q.094.095.162.121.067.027.323.054t.834.027h.35v.62h-.148q-.282-.04-2.14-.04-1.83 0-2.113.04h-.162v-.62h.862q.215 0 .336-.013.121-.014.216-.04.094-.028.107-.028.014 0 .081-.067t.08-.054zM210.178 65.009q0 .323-.216.538-.215.216-.525.216h-.094q.62 1.063 1.642 1.063.943 0 1.374-.807.255-.445.255-1.723 0-1.387-.363-1.872-.35-.444-.78-.444h-.082q-1.05 0-1.588.916-.054.094-.094.107-.04.014-.202.027-.23 0-.256-.08-.027-.054-.027-2.356v-1.737q0-.673.067-.673.027-.027.054-.027.014 0 .283.108.27.108.74.215.471.108 1.01.108.956 0 1.83-.377.108-.054.176-.054.107 0 .107.243v.175q-1.104 1.305-2.76 1.305-.417 0-.753-.08l-.135-.027v2.315q.256-.189.404-.296.148-.108.485-.216.336-.107.686-.107 1.09 0 1.844.875t.754 2.073q0 1.238-.861 2.113-.862.875-2.1.889-1.09 0-1.75-.727-.66-.727-.66-1.643 0-.323.148-.511.148-.189.31-.242.161-.054.31-.054.336 0 .551.229.216.228.216.538z"/></g></g></g><path d="M219.348 69.847q0-1.314.19-2.494.191-1.18.439-2.037.247-.857.704-1.676.457-.819.724-1.276.266-.457.8-.99.533-.533.628-.647.095-.114.476-.4h.323q.267 0 .267.171 0 .058-.324.4-.323.343-.78 1.01-.457.666-.933 1.637-.476.97-.8 2.627-.324 1.657-.324 3.675t.324 3.656q.324 1.637.78 2.646.458 1.01.934 1.638.476.628.8 1.009.323.38.323.4 0 .171-.286.171h-.304l-.533-.457q-1.79-1.618-2.609-4.036-.819-2.418-.819-5.027Z" data-mml-node="mo"/><g data-mml-node="msup"><g data-mml-node="mn"><path d="m229.02 63.602-.247.095q-.266.095-.761.19-.495.096-1.105.134h-.361v-.876h.361q.895-.038 1.657-.286.761-.247 1.066-.457.305-.209.533-.418.038-.058.229-.058.171 0 .323.115v5.693l.02 5.712q.133.133.228.171.095.038.457.076t1.18.038h.495v.876h-.21q-.399-.057-3.026-.057-2.59 0-2.99.057h-.228v-.876h1.218q.305 0 .476-.019.172-.019.305-.057.133-.038.152-.038.02 0 .115-.095t.114-.076zM236.313 63.469q1.066-1.543 2.913-1.543.914 0 1.828.495.914.496 1.485 1.752.705 1.58.705 4.341 0 2.951-.82 4.513-.38.8-1.046 1.275-.667.476-1.162.59-.495.115-.97.134-.496 0-.99-.114-.496-.115-1.162-.61-.667-.495-1.047-1.275-.82-1.562-.82-4.513 0-3.313 1.086-5.045zm4.284-.229q-.571-.61-1.352-.61-.8 0-1.37.61-.477.495-.629 1.371-.152.876-.152 3.656 0 3.008.152 3.96t.685 1.504q.534.571 1.314.571.762 0 1.295-.57.552-.572.685-1.6.134-1.028.153-3.865 0-2.761-.153-3.637-.152-.876-.628-1.39z"/></g><g data-mjx-texclass="ORD" data-mml-node="TeXAtom"><path d="M245.764 63.932v-.175q0-.175.189-.27h7.82q.203.109.203.27 0 .162-.202.27h-7.821q-.189-.095-.189-.27z" data-mml-node="mo"/><path d="M255.672 62.91q0-2.195 1.09-3.474 1.09-1.279 2.423-1.279.929 0 1.333.485.404.484.404 1.077 0 .336-.189.538-.188.202-.525.202-.31 0-.511-.188-.202-.189-.202-.525 0-.593.632-.714-.296-.296-.834-.336-.956 0-1.575.807-.633.889-.633 2.72l.014.053q.067-.08.107-.175.552-.807 1.44-.807h.055q.619 0 1.09.255.323.189.646.539.323.35.525.767.283.66.283 1.44v.243q0 .31-.068.579-.148.794-.861 1.548t-1.804.754q-.377 0-.727-.108t-.754-.404q-.403-.296-.686-.794-.283-.498-.485-1.306t-.188-1.898zm2.894-1.132q-.404 0-.7.23-.296.228-.458.605-.161.377-.229.767-.067.39-.08.835 0 1.117.161 1.602.162.484.512.78.323.243.713.243.687 0 1.05-.512.175-.242.243-.606.067-.363.067-1.413 0-1.077-.067-1.44-.068-.364-.243-.606-.363-.485-.969-.485z" data-mml-node="mn"/></g></g><g data-mml-node="mtext" style="font-family:Regular"><path d="M291.897-441.892h178.052v24.82q-49.1 1.078-131.65 73.378-26.439 22.661-82.012 66.365L413.835-92.803q35.61 41.546 56.114 54.495 20.503 12.41 42.085 13.489V0H291.897v-24.82q55.034-1.078 55.034-23.74 0-10.251-36.15-52.336l-113.305-131.65-23.201 17.265v63.667q0 70.681 1.619 89.026 2.158 17.805 15.647 28.057 13.488 9.712 46.94 9.712V0H14.568v-24.82h16.726q38.848 0 50.178-10.79 11.87-11.33 13.489-26.438 1.619-15.647 1.619-89.566v-442.971q0-64.206-12.41-82.012-11.87-17.805-58.272-17.805v-24.82q31.834 0 76.077-7.553 44.783-7.554 60.97-15.107h11.33v496.926l46.401-32.373q112.766-79.854 112.766-114.924 0-23.74-41.545-24.82zm369.592-17.805h5.396q15.647 36.15 15.647 92.802 36.15-46.4 77.695-69.602 42.085-23.2 90.105-23.2 54.495 0 88.486 24.82 33.992 24.818 47.48 74.457 41.007-49.639 84.17-74.458 43.165-24.82 87.947-24.82 51.258 0 86.868 23.741 35.61 23.74 43.164 53.955 7.554 30.215 7.554 97.659v132.73q0 77.155 2.698 93.881 3.237 16.726 17.265 24.82 14.568 8.093 53.416 8.093V0h-220.676v-24.82q35.07 0 49.099-7.553 14.568-8.093 17.805-23.74 3.237-16.187 3.237-95.5v-147.298q0-44.783-5.395-67.444-4.856-22.661-26.438-38.848-21.582-16.186-56.114-16.186-35.07 0-70.68 23.74-35.072 23.74-70.682 71.76v174.275q0 70.681 1.619 89.026 2.158 17.805 15.107 28.057 13.489 9.712 47.48 9.712V0H840.082v-24.82q36.15 0 50.178-7.553 14.568-7.554 17.805-23.2 3.777-15.648 3.777-96.04v-122.479q0-58.271-4.856-84.17-4.317-26.438-27.517-44.782-23.2-18.885-57.732-18.885-33.452 0-68.523 21.582-34.531 21.582-70.681 64.746v183.987q0 72.84 2.158 90.645 2.158 17.805 16.186 26.977 14.029 9.173 50.179 9.173V0h-216.36v-24.82q35.61 0 49.639-7.553 14.567-8.093 17.805-23.74 3.237-15.647 3.237-95.5v-132.19q0-75.538-2.698-92.264-2.158-17.266-16.726-25.898-14.028-8.633-51.257-8.633v-24.82q76.616-7.553 126.794-24.28z" aria-label="km" style="font-size:1105px;font-family:Baskerville;-inkscape-font-specification:Baskerville" transform="translate(264.696 74.607) scale(.01904)"/></g><path d="m292.357 60.346.076-.019H292.853l.532.457q1.79 1.618 2.609 4.037.819 2.418.819 5.026 0 1.295-.19 2.494-.191 1.2-.439 2.038-.247.837-.704 1.675-.457.838-.724 1.276-.266.438-.78.97-.514.534-.61.63-.095.094-.437.36l-.077.077h-.438q-.057 0-.095-.057t-.057-.171q.02-.02.21-.248 2.95-3.065 2.95-9.044 0-5.978-2.95-9.044-.19-.228-.21-.247 0-.153.095-.21zM304.977 68q0-.247.267-.38h12.128q.286.152.286.38 0 .21-.267.362l-6.055.019h-6.054q-.305-.095-.305-.38zm0 3.694q0-.286.305-.38h12.11q.266.19.266.38 0 .247-.286.38h-12.128q-.267-.133-.267-.38zM325.498 73.465q0-.457.324-.8t.819-.343q.457 0 .8.305.342.305.361.819 0 .476-.323.818-.324.343-.82.343-.494 0-.818-.324-.324-.323-.343-.818Zm8.511 0q0-.457.324-.8t.819-.343q.457 0 .8.305.342.305.361.819 0 .476-.324.818-.323.343-.818.343-.495 0-.82-.324-.323-.323-.342-.818Zm8.511 0q0-.457.324-.8.323-.343.819-.343.456 0 .8.305.342.305.36.819 0 .476-.323.818-.323.343-.818.343-.495 0-.82-.324-.323-.323-.342-.818z" data-mml-node="mo"/></g></g></svg>