<svg xmlns="http://www.w3.org/2000/svg" width="497.212" height="317.105" viewBox="0 0 466.137 297.286"><defs><clipPath id="a"><path d="M226.254 254.46H228V279h-1.746zm0 0"/></clipPath><clipPath id="b"><path d="M383 388h1.996v25.203H383zm0 0"/></clipPath><clipPath id="c"><path d="M383 254.46h1.996V279H383Zm0 0"/></clipPath><clipPath id="g"><path d="M226.254 254.46H228V279h-1.746zm0 0"/></clipPath><clipPath id="h"><path d="M383 388h1.996v25.203H383zm0 0"/></clipPath><clipPath id="i"><path d="M383 254.46h1.996V279H383Zm0 0"/></clipPath><clipPath id="d"><path d="M226.254 254.46H228V279h-1.746zm0 0"/></clipPath><clipPath id="e"><path d="M383 388h1.996v25.203H383zm0 0"/></clipPath><clipPath id="f"><path d="M383 254.46h1.996V279H383Zm0 0"/></clipPath><clipPath id="j"><path d="M226.254 254.46H228V279h-1.746zm0 0"/></clipPath><clipPath id="k"><path d="M383 388h1.996v25.203H383zm0 0"/></clipPath><clipPath id="l"><path d="M383 254.46h1.996V279H383Zm0 0"/></clipPath><clipPath id="p"><path d="M226.254 254.46H228V279h-1.746zm0 0"/></clipPath><clipPath id="q"><path d="M383 388h1.996v25.203H383zm0 0"/></clipPath><clipPath id="r"><path d="M383 254.46h1.996V279H383Zm0 0"/></clipPath><clipPath id="m"><path d="M226.254 254.46H228V279h-1.746zm0 0"/></clipPath><clipPath id="n"><path d="M383 388h1.996v25.203H383zm0 0"/></clipPath><clipPath id="o"><path d="M383 254.46h1.996V279H383Zm0 0"/></clipPath></defs><g style="display:inline"><path d="M41.286 107.229c-5.098-3.391-9.952-7.308-13.807-12.186-1.14-1.442-2.116-3.014-3.174-4.52-.852-1.717-1.845-3.365-2.558-5.15-3.228-8.084-3.63-17.214-1.5-25.653.643-2.545 1.66-4.851 2.489-7.277 1.261-2.36 2.347-4.751 3.784-6.971 4.97-7.68 11.724-14.111 19.305-19.191 7.737-5.184 10.952-6.188 19.564-10.08 4.15-1.338 8.238-2.853 12.442-4.015 23.109-6.443 47.247-8.21 71.093-5.928 15.09 1.36 33.478 6.108 49.28 12.788 1.514.64-.013 1.445-.892.965-.541-.322-.148-1.055.45-1.38 1.4-.76 3.148-1.72 4.47-2.236 11.302-4.41 24-6.272 36.054-7.322 13.445-1.171 26.693-1.172 40.066.173 8.996.905 12.675 1.06 21.404 2.956 12.575 2.733 25.63 7.059 35.954 14.499 5.531 3.986 12.236 9.751 15.964 14.191 7.103 8.458 13.023 21.687 13.192 32.892.096 6.328-1.256 16.015-5.254 24.278-4.869 10.065-11.506 15.355-18.936 20.683-2.262 1.623-5.112 3.11-6.922 3.768-2.068.752-4.81.855-5.046.33-.153-.353 1.049-.94 1.573-.631 4.913 4.583 8.37 9.379 10.32 16.094 2.71 9.334-.65 19.835-5.956 27.498-6.169 8.907-16.774 17.69-29.136 23.05-9.983 4.327-17.73 6.917-28.543 8.2-6.026.716-7.717.93-13.568 1.055-4.293-.063-8.588-.336-12.707-1.34-1.172-.287-3.475-.956-3.451-1.687-.052-.618 1.403-.29 2.125.028 1.563.683 2.861 1.96 3.262 3.528.155.606.194 1.284.097 1.918-.11.706-.32 1.39-.707 2.037-3.314 5.515-13.027 7.378-18.728 8.808-16.072 3.706-31.946 3.74-47.532 3.156-12.428-.935-24.902-2.687-35.47-7.529-1.442-.66-2.763-1.477-4.144-2.216-2.536-1.839-6.046-4.03-5.795-7.58.06-.84.517-1.518.938-2.288.223-.386.469-.425.656-.27.24.188.358.595.157.82-.188.209-.55.354-.823.426-2.33.622-4.622.93-7.008 1.262-7.77 1.08-16.614.903-24.858-.24-2.289-.317-4.562-.763-6.844-1.145-13.599-3.01-26.905-7.873-39.11-15.29-2.62-1.593-5.127-3.41-7.69-5.114-9.434-7.16-18.562-15.729-23.208-27.719-2.893-7.468-3.2-10.921-3.007-17.428a44.443 44.443 0 0 1 1.141-8.7c1.205-5.18 3.78-10.986 6.37-15.49.188-.328 1.211-2.142 1.41-2.46" style="opacity:1;fill:#e5f6ff;fill-opacity:1;stroke:#000;stroke-width:.984378;stroke-linecap:butt;stroke-linejoin:miter;stroke-miterlimit:4;stroke-dasharray:none;stroke-dashoffset:0;stroke-opacity:1" transform="translate(98.796 41.129)"/><path d="M95.346 361.52c-.078-.148-.037.228-.125.268-.285.13-.61.101-.914.162-2.593.516-5.156.893-7.773 1.225-9.088.855-18.196.247-27.081-1.27-2.467-.42-4.906-.97-7.36-1.454-14.56-3.625-28.62-9.318-41.275-17.285-2.718-1.71-5.291-3.64-7.937-5.46-9.659-7.584-18.861-16.562-22.88-28.756-2.503-7.596-1.843-9.599-1.76-17.555.667-2.882 1.036-5.84 2.002-8.645 1.764-5.122 5.076-10.808 8.291-15.193 1.464-1.996 3.184-3.787 4.776-5.681" style="opacity:1;fill:none;fill-opacity:1;stroke:#000;stroke-width:.71873009;stroke-linecap:butt;stroke-linejoin:miter;stroke-miterlimit:4;stroke-dasharray:none;stroke-dashoffset:0;stroke-opacity:1" transform="translate(98.796 41.129)"/><path d="M-578.722 417.293c-7.37-3.872-14.52-8.465-20.284-14.544-1.573-1.66-2.952-3.493-4.427-5.24-1.234-2.022-2.64-3.949-3.7-6.066-4.81-9.597-6.12-20.73-4.154-31.25.593-3.174 1.671-6.237 2.507-9.355 1.39-3.075 2.548-6.266 4.17-9.225 5.614-10.234 13.605-19.044 22.772-26.207 9.354-7.31 13.347-8.882 23.925-14.626 4.89-2.065 9.694-4.35 14.671-6.196 21.815-8.094 45.157-12.439 68.33-13.99 5.667-.38 11.354-.375 17.03-.562 20.771.501 42.053 2.03 61.729 9.277 2.022.745 3.963 1.696 5.944 2.544.922.637 7.374 3.109 5.262 5.923-1.332 1.774-6.169.969-7.872.784-2.452-.499-8.524-1.704-8.325-5.33.145-2.662 1.76-3.488 3.515-5.199 1.37-.844 2.683-1.792 4.113-2.532 12.23-6.333 26.96-9.416 40.4-11.525 14.993-2.353 30.185-2.946 45.371-2.095 10.215.572 12.555 1.19 22.616 2.76 14.395 2.948 28.16 8.352 40.09 17.177 6.391 4.727 10.547 9.221 14.692 14.94 6.947 9.583 13.77 25.05 14.681 41.24.523 9.278.749 14.045-.354 23.136-1.535 12.657-5.39 25.146-13.073 35.725-.928 1.277-2.07 2.386-3.104 3.58-1.452 1.319-7.475 6.842-9.879 4.45-.217-.215-.267-.551-.4-.827.125-.411.118-.889.375-1.234 1.888-2.53 7.932.193 9.93 1.034 6.123 3.308 10.99 8.4 14.16 14.599.743 1.45 1.296 2.99 1.944 4.486 3.095 9.02 4 18.659 1.961 28.032-.473 2.176-1.213 4.285-1.82 6.428-4.594 11.863-13.314 21.08-23.76 28.12-2.5 1.686-5.152 3.134-7.729 4.702-11.18 5.976-23.24 10.253-35.663 12.782-6.922 1.41-8.909 1.429-15.717 2.077-5.018.281-10.07.297-15.028-.626-1.411-.262-3.443-.498-4.282-1.84.364-.29.638-.765 1.09-.87.473-.11.965.136 1.425.287 1.826.597 3.58 1.889 4.514 3.604.361.662.493 1.426.74 2.139-.014.786.138 1.593-.043 2.359-1.547 6.538-10.858 9.67-16.211 11.885-15.2 5.882-31.425 7.626-47.56 8.646-13.024.287-26.369-.336-38.795-4.628-1.695-.585-3.318-1.359-4.978-2.038-3.209-1.79-7.53-3.868-8.46-7.874-.219-.947.023-1.757.19-2.675-.133-.177-.002.296-.11.36-.348.207-.78.218-1.166.34-3.294 1.036-6.576 1.89-9.939 2.695-11.737 2.416-23.795 2.968-35.744 2.33-3.318-.178-6.625-.523-9.938-.784-19.811-2.503-39.383-7.717-57.575-16.038-3.905-1.786-7.667-3.873-11.5-5.81-14.186-8.268-28.056-18.382-35.78-33.355-4.811-9.326-4.35-11.978-5.845-22.142.294-3.774.18-7.602.882-11.322 1.279-6.792 4.474-14.53 7.803-20.593 1.516-2.76 3.41-5.297 5.114-7.945" style="opacity:1;fill:#d5f6ff;fill-opacity:1;stroke:#000;stroke-width:.93750006;stroke-linecap:butt;stroke-linejoin:miter;stroke-miterlimit:4;stroke-dasharray:none;stroke-dashoffset:0;stroke-opacity:1" transform="translate(82.693 -206.113)"/><path d="M111.44-376.97c-1.711 2.78-3.696 5.429-5.046 7.867-3.029 5.538-6.406 13.551-7.6 19.76-.705 3.664-.622 7.437-.934 11.155 1.422 10.018.954 12.655 5.663 21.86 7.614 14.883 21.387 24.915 35.45 33.126 3.815 1.93 7.558 4.008 11.445 5.787 18.116 8.292 37.61 13.486 57.342 15.975 3.299.259 6.592.601 9.896.777 11.882.63 23.872.078 35.54-2.335 3.455-.831 4.495-1.026 7.705-1.982.692-.206 3.785-1.672 4.603-.717.17.198-.043.52-.065.78-1.227 4.567 4.618 7.372 7.73 9.122 1.633.673 3.23 1.44 4.898 2.018 12.335 4.279 25.591 4.886 38.522 4.603 16.05-1.017 32.189-2.753 47.303-8.619 4.402-1.83 14.01-5.343 15.512-10.692.19-.674.1-1.397.15-2.096-.65-2.198-1.104-3.328-3.145-4.607-.45-.282-.95-.478-1.45-.657-.362-.13-.799-.062-1.125-.268-.202-.128-.21-.43-.315-.644-.353.512-.294.303 1.074.745 1.764.571 4.435 1.003 6.166 1.162 4.535.415 6.403.21 11.161.088 6.762-.643 8.732-.66 15.608-2.061 12.343-2.514 24.325-6.767 35.429-12.716 2.553-1.557 5.183-2.996 7.66-4.67 10.298-6.96 18.892-16.064 23.383-27.787.558-1.912 1.243-3.792 1.673-5.736 2.041-9.232 1.221-18.718-1.802-27.625-.627-1.468-1.16-2.979-1.88-4.403-3.066-6.065-7.79-11.057-13.754-14.309-2.32-.986-5.454-2.62-8.091-1.767-.273.088-.487.304-.73.456l-.264.072c-.009.925.771 1.016 1.636.798 2.827-.712 5.093-2.815 7.168-4.71 1.004-1.165 2.112-2.248 3.011-3.495 7.456-10.334 10.045-23.92 11.88-36.222.794-9.068 1.406-12.364.87-21.583-.866-14.869-4.91-29.11-13.29-41.524-6.236-7.266-7.063-9.044-14.836-14.812-11.832-8.779-25.829-13.483-40.119-16.413-10.015-1.564-12.344-2.18-22.514-2.75-15.136-.85-30.25.595-45.22 2.758-13.304 2.284-27.981 4.5-40.105 10.805-1.377.716-2.638 1.636-3.957 2.453-.677.665-2.97 2.46-3.186 3.884-.5 3.3 5.487 4.381 7.568 4.821.996.11 1.986.3 2.987.331 1.958.059 6.553-.191 2.825-2.965-1.139-.847-2.447-1.438-3.671-2.157-1.958-.843-3.875-1.788-5.874-2.528-19.581-7.248-40.78-8.759-61.46-9.268-5.66.186-11.33.18-16.98.559-23.097 1.545-46.365 5.88-68.104 13.958-4.953 1.841-9.732 4.119-14.599 6.178-10.506 5.716-14.478 7.283-23.763 14.555-9.074 7.106-16.983 15.848-22.52 26-1.597 2.928-2.732 6.085-4.097 9.127-.792 2.88-1.817 5.707-2.374 8.642-1.97 10.362-.766 21.312 3.937 30.796 1.034 2.087 2.41 3.986 3.615 5.98 1.452 1.726 2.807 3.54 4.356 5.18 5.684 6.02 12.75 10.557 20.033 14.387" style="opacity:1;fill:#000;fill-opacity:1;stroke:#de8787;stroke-width:0;stroke-linecap:butt;stroke-linejoin:miter;stroke-miterlimit:4;stroke-dasharray:none;stroke-dashoffset:0;stroke-opacity:.82647059" transform="translate(82.693 -206.113)"/><path d="M-576.07 55.343c-7.37-3.872-14.521-8.466-20.284-14.545-1.574-1.659-2.952-3.493-4.428-5.24-1.233-2.021-2.639-3.948-3.7-6.066-4.809-9.596-6.12-20.73-4.154-31.25.593-3.173 1.672-6.236 2.507-9.354 1.39-3.075 2.548-6.266 4.171-9.225 5.614-10.235 13.605-19.044 22.772-26.207 9.354-7.31 13.346-8.882 23.925-14.626 4.89-2.065 9.694-4.35 14.67-6.197 21.815-8.093 45.158-12.438 68.331-13.99 5.667-.38 11.353-.374 17.03-.562 20.771.502 42.053 2.03 61.729 9.278 2.022.745 3.962 1.696 5.943 2.544.923.637 7.375 3.109 5.262 5.923-1.332 1.774-6.168.968-7.871.783-2.452-.498-8.524-1.703-8.326-5.33.146-2.662 1.76-3.488 3.515-5.198 1.371-.844 2.684-1.792 4.114-2.533 12.229-6.332 26.991-8.565 40.4-10.861 15.02-2.165 30.185-3.61 45.371-2.758 10.215.572 12.554 1.19 22.615 2.76 14.396 2.947 28.492 7.689 40.422 16.513 7.86 5.815 8.705 7.613 15.024 14.94 8.505 12.514 12.638 26.885 13.55 41.904.563 9.275-.047 12.605-.824 21.73-1.86 12.612-4.452 26.552-12.135 37.13-.928 1.278-2.07 2.387-3.104 3.58-1.452 1.32-7.476 6.843-9.88 4.451-.217-.216-.266-.551-.4-.827.126-.411.119-.89.376-1.234 1.888-2.53 7.932.192 9.93 1.034 6.123 3.308 10.99 8.4 14.16 14.598.742 1.451 1.296 2.991 1.944 4.486 3.095 9.021 4 18.66 1.96 28.032-.473 2.176-1.212 4.286-1.819 6.428-4.595 11.864-13.314 21.08-23.76 28.121-2.5 1.686-5.153 3.134-7.73 4.701-11.18 5.977-23.24 10.254-35.662 12.783-6.922 1.409-8.91 1.428-15.717 2.077-5.019.28-10.07.297-15.028-.626-1.412-.263-3.443-.498-4.282-1.84.363-.29.637-.765 1.09-.87.472-.11.965.136 1.425.287 1.826.597 3.58 1.888 4.514 3.603.36.663.493 1.426.74 2.14-.015.786.138 1.593-.043 2.358-1.547 6.539-10.859 9.67-16.211 11.886-15.201 5.881-31.426 7.626-47.561 8.645-13.024.288-26.368-.336-38.794-4.627-1.695-.585-3.319-1.36-4.978-2.039-3.209-1.789-7.53-3.868-8.46-7.873-.22-.948.023-1.758.19-2.676-.133-.176-.003.297-.11.36-.348.207-.78.219-1.166.34-3.294 1.037-6.576 1.892-9.94 2.696-11.736 2.415-23.794 2.967-35.744 2.329-3.318-.178-6.625-.522-9.937-.783-19.811-2.504-39.384-7.718-57.575-16.038-3.906-1.786-7.667-3.873-11.5-5.81-14.187-8.269-28.056-18.382-35.78-33.356-4.811-9.326-4.35-11.978-5.845-22.142.294-3.773.18-7.601.881-11.321 1.28-6.792 4.474-14.53 7.804-20.593 1.516-2.76 3.409-5.297 5.113-7.946" style="opacity:1;fill:#d5f6ff;fill-opacity:1;stroke:#000;stroke-width:.93750006;stroke-linecap:butt;stroke-linejoin:miter;stroke-miterlimit:4;stroke-dasharray:none;stroke-dashoffset:0;stroke-opacity:1" transform="translate(82.693 -206.113)"/><path d="M-57.174 66.513c.65-1.331 1.211-2.709 1.949-3.993 1.925-3.35 2.651-3.889 5.15-6.7 2.485-2.004 2.986-2.717 5.92-3.917 4.33-1.77 9.056-1.712 13.5-.47 1.093.45 2.23.806 3.28 1.35 4.182 2.165 7.738 5.834 9.493 10.23.465 1.164.708 2.406 1.063 3.61.363 3.46.69 4.517.148 8.054-.86 5.613-4.012 10.12-8.39 13.602-1.254.768-2.449 1.644-3.764 2.303-5.253 2.631-11.264 3.62-16.991 2.074-1.293-.348-2.508-.94-3.761-1.41-1.094-.67-2.245-1.255-3.282-2.01-3.6-2.62-6.567-6.412-7.943-10.676-.28-.864-.388-1.773-.582-2.66 0-.915-.083-1.833 0-2.744.308-3.415 2.129-6.431 4.263-9.013" style="opacity:1;fill:#e5f6ff;fill-opacity:1;stroke:#000;stroke-width:.98437506;stroke-linecap:butt;stroke-linejoin:miter;stroke-miterlimit:4;stroke-dasharray:none;stroke-dashoffset:0;stroke-opacity:.82647059" transform="translate(98.796 41.129)"/><path d="M545.383 139.423c4.939 4.482 13.213 2.911 17.422.847 10.41-5.106 11.182-17.992 5.687-26.005-4.129-6.02-12.345-8.621-19.623-6.802-8.652 2.162-15.541 9.067-16.322 17.661-.355 3.917 1.625 7.735 4.228 10.028 3.287 2.896 7.327 4.537 11.362 3.962" style="display:inline;fill:#e5f6ff;fill-opacity:1;stroke:#000;stroke-width:1.125;stroke-linejoin:round;stroke-miterlimit:2;stroke-dasharray:none;stroke-dashoffset:0" transform="translate(98.796 41.129)"/><path d="M-95.466-231.668c-6.078-3.627-11.93-7.845-16.519-13.233-1.252-1.47-2.33-3.077-3.494-4.615-.943-1.757-2.039-3.442-2.83-5.269-3.586-8.28-4.105-17.66-1.863-26.354.677-2.623 1.761-5.127 2.641-7.691 1.352-2.498 2.51-5.106 4.054-7.495 5.338-8.264 12.627-15.21 20.831-20.717 8.372-5.62 11.862-6.725 21.193-10.97 4.282-1.47 8.502-3.128 12.847-4.41 19.041-5.619 39.185-8.022 59.033-8.098 4.854-.018 9.704.286 14.555.428 17.69 1.515 35.76 3.915 52.152 11.013 6.25 2.447-7.563 3.708-2.765-.063 1.215-.634 3.96-2.44 5.22-2.985 10.77-4.651 23.501-6.453 35.078-7.508 12.914-1.177 25.904-.873 38.81.64 8.683 1.017 10.645 1.657 19.142 3.5 12.12 3.224 23.57 8.47 33.27 16.479 5.198 4.29 8.5 8.268 11.729 13.269 5.41 8.38 10.397 21.676 10.305 35.264-.053 7.787-.117 11.785-1.547 19.33-1.99 10.505-5.949 20.747-13.07 29.189-1.709 2.092-3.632 3.538-5.234 4.584-3.715 2.423-3.961-2.182-.961-.27.897.389 1.672 1.141 2.155 1.383 4.894 3.09 8.55 7.605 10.66 12.957.494 1.253.819 2.57 1.228 3.855 1.779 7.708 1.637 15.817-.983 23.55-.608 1.794-1.436 3.52-2.155 5.28-5.028 9.68-13.313 16.93-22.86 22.268-2.286 1.278-4.678 2.35-7.017 3.524-10.071 4.41-20.73 7.351-31.531 8.812-6.02.813-7.71.725-13.56.909-4.294-.03-8.59-.283-12.72-1.316-1.174-.295-2.88-.599-3.466-1.765.337-.224.614-.607 1.01-.67.411-.068.806.164 1.184.314 1.496.596 2.865 1.769 3.497 3.253.244.573.285 1.218.427 1.828-.087.657-.033 1.34-.26 1.97-1.933 5.388-10.147 7.516-14.907 9.087-13.48 4.118-27.441 4.722-41.257 4.724-11.1-.446-22.388-1.672-32.548-5.916-1.385-.58-2.693-1.312-4.039-1.968-2.56-1.665-6.037-3.632-6.449-7.032-.097-.803.185-1.468.414-2.227-.096-.155-.03.248-.127.296-.316.154-.684.14-1.023.222-2.9.693-5.771 1.235-8.706 1.73-10.208 1.402-20.513 1.228-30.613.063-2.804-.323-5.583-.786-8.375-1.179-16.608-3.138-32.757-8.53-47.437-16.45-3.152-1.7-6.153-3.643-9.23-5.465-11.28-7.664-22.116-16.854-27.268-29.786-3.21-8.054-2.566-10.248-2.876-18.828.606-3.14.872-6.348 1.82-9.423 1.73-5.613 5.177-11.918 8.582-16.813 1.55-2.229 3.399-4.25 5.099-6.376" style="opacity:1;fill:#d5f6ff;fill-opacity:1;stroke:#000;stroke-width:.79337001;stroke-linecap:butt;stroke-linejoin:miter;stroke-miterlimit:4;stroke-dasharray:none;stroke-dashoffset:0;stroke-opacity:1" transform="translate(98.796 41.129)"/><path d="M152.813 112.634h20.01v-1.071h-20.01zM162.148 94.177l-.232.089q-.25.09-.714.178-.464.09-1.035.125h-.34v-.82h.34q.839-.036 1.553-.269.714-.232 1-.428.285-.196.5-.393.035-.053.213-.053.16 0 .304.107v5.337l.018 5.355q.125.125.214.16.089.036.428.072.34.036 1.107.036h.464v.82h-.196q-.375-.053-2.839-.053-2.427 0-2.802.054h-.214v-.821H161.059q.286 0 .446-.018.161-.018.286-.054.125-.035.143-.035.018 0 .107-.09.09-.089.107-.07zM160.167 123.683q-.857 1.356-2.142 1.356-1.393 0-2.285-1.053-.893-1.053-1.071-2.249-.036-.286-.036-.714v-.143q0-1.66 1.232-2.891 1.07-1.071 2.356-1.071h.107q.072 0 .143.017h.071q.215 0 .447.036t.66.214q.428.179.839.571.41.393.768 1.054.767 1.57.767 4.034 0 2.499-1.07 4.23-.626 1-1.5 1.553-.875.553-1.857.571-1.089 0-1.785-.517-.696-.518-.714-1.535-.018-1.018.946-1 .393 0 .66.25.269.25.269.696 0 .321-.161.553-.16.232-.286.286-.125.054-.232.09l-.071.017q0 .036.125.107.125.072.464.179.34.107.75.089h.107q1.07 0 1.803-1.142.696-1 .696-3.463zm-1.928.696q.857 0 1.374-.875.518-.874.536-2.374 0-1.392-.143-2-.036-.178-.107-.356-.071-.179-.25-.464-.178-.286-.535-.482-.357-.196-.84-.179-.678 0-1.16.482-.374.393-.482.929-.107.535-.125 1.874 0 1.481.09 1.999.089.518.357.839.446.607 1.285.607zM169.092 123.683q-.857 1.356-2.142 1.356-1.393 0-2.285-1.053-.893-1.053-1.071-2.249-.036-.286-.036-.714v-.143q0-1.66 1.232-2.891 1.07-1.071 2.356-1.071h.107q.072 0 .143.017h.071q.215 0 .447.036t.66.214q.428.179.839.571.41.393.768 1.054.767 1.57.767 4.034 0 2.499-1.07 4.23-.626 1-1.5 1.553-.875.553-1.857.571-1.089 0-1.785-.517-.696-.518-.714-1.535-.018-1.018.946-1 .393 0 .66.25.269.25.269.696 0 .321-.161.553-.16.232-.286.286-.125.054-.232.09l-.071.017q0 .036.125.107.125.072.464.179.34.107.75.089h.107q1.07 0 1.803-1.142.696-1 .696-3.463zm-1.928.696q.857 0 1.374-.875.518-.874.536-2.374 0-1.392-.143-2-.036-.178-.107-.356-.071-.179-.25-.464-.178-.286-.535-.482-.357-.196-.84-.179-.678 0-1.16.482-.374.393-.482.929-.107.535-.125 1.874 0 1.481.09 1.999.089.518.357.839.446.607 1.285.607zM180.426 112.33v-.232q0-.232.25-.357h10.371q.268.143.268.357t-.268.357h-10.37q-.25-.125-.25-.357zM198.92 112.634h28.934v-1.071h-28.935zM212.717 94.177l-.232.089q-.25.09-.714.178-.464.09-1.035.125h-.34v-.82h.34q.839-.036 1.553-.269.714-.232 1-.428.285-.196.5-.393.035-.053.213-.053.161 0 .304.107v5.337l.018 5.355q.125.125.214.16.09.036.428.072.34.036 1.107.036h.464v.82h-.196q-.375-.053-2.838-.053-2.428 0-2.803.054h-.214v-.821H211.628q.286 0 .447-.018.16-.018.285-.054.125-.035.143-.035.018 0 .107-.09.09-.089.107-.07zM203.792 118.488l-.232.09q-.25.089-.714.178-.464.09-1.035.125h-.34v-.821h.34q.839-.036 1.553-.268t1-.428q.285-.197.5-.393.035-.053.213-.053.161 0 .304.107v5.337l.018 5.355q.125.125.214.16.09.036.428.072.34.036 1.107.036h.464v.82h-.196q-.375-.053-2.838-.053-2.428 0-2.803.054h-.214v-.821H202.703q.286 0 .447-.018.16-.018.285-.054.125-.036.143-.036.018 0 .107-.089.09-.09.107-.071zM210.629 118.363q1-1.445 2.73-1.445.858 0 1.714.464.857.464 1.393 1.642.66 1.481.66 4.07 0 2.766-.767 4.23-.357.75-.982 1.196-.625.446-1.09.553-.463.107-.91.125-.464 0-.928-.107t-1.088-.571q-.625-.464-.982-1.196-.768-1.464-.768-4.23 0-3.106 1.018-4.73zm4.016-.214q-.536-.571-1.267-.571-.75 0-1.286.571-.446.464-.589 1.285-.142.821-.142 3.428 0 2.82.142 3.712.143.893.643 1.41.5.536 1.232.536.714 0 1.213-.535.518-.536.643-1.5t.143-3.623q0-2.589-.143-3.41-.143-.82-.59-1.303zM219.572 118.363q1-1.445 2.73-1.445.857 0 1.714.464t1.392 1.642q.66 1.481.66 4.07 0 2.766-.767 4.23-.357.75-.981 1.196-.625.446-1.09.553-.463.107-.91.125-.464 0-.928-.107t-1.089-.571q-.624-.464-.981-1.196-.768-1.464-.768-4.23 0-3.106 1.018-4.73zm4.016-.214q-.536-.571-1.268-.571-.75 0-1.285.571-.446.464-.589 1.285-.143.821-.143 3.428 0 2.82.143 3.712.143.893.643 1.41.5.536 1.231.536.714 0 1.214-.535.518-.536.643-1.5t.143-3.623q0-2.589-.143-3.41-.143-.82-.59-1.303zM235.958 110.367q0-.232.25-.357h11.37q.268.142.268.357 0 .196-.25.339l-5.676.018h-5.677q-.285-.09-.285-.357zm0 3.462q0-.267.285-.357h11.353q.25.179.25.357 0 .233-.268.357h-11.37q-.25-.124-.25-.357zM255.968 112.634h20.01v-1.071h-20.01zM265.303 94.177l-.232.089q-.25.09-.714.178-.464.09-1.035.125h-.34v-.82h.34q.839-.036 1.553-.269.714-.232 1-.428.285-.196.5-.393.035-.053.213-.053.161 0 .304.107v5.337l.018 5.355q.125.125.214.16.09.036.428.072.34.036 1.107.036h.464v.82h-.196q-.375-.053-2.838-.053-2.428 0-2.803.054h-.214v-.821H264.214q.286 0 .447-.018.16-.018.285-.054.125-.035.143-.035.018 0 .107-.09.09-.089.107-.07zM263.322 123.683q-.857 1.356-2.142 1.356-1.392 0-2.285-1.053-.892-1.053-1.07-2.249-.037-.286-.037-.714v-.143q0-1.66 1.232-2.891 1.071-1.071 2.356-1.071h.107q.072 0 .143.017h.072q.214 0 .446.036t.66.214q.429.179.84.571.41.393.767 1.054.767 1.57.767 4.034 0 2.499-1.07 4.23-.625 1-1.5 1.553-.875.553-1.857.571-1.088 0-1.785-.517-.696-.518-.714-1.535-.017-1.018.947-1 .392 0 .66.25t.268.696q0 .321-.16.553-.162.232-.287.286-.124.054-.232.09l-.071.017q0 .036.125.107.125.072.464.179.34.107.75.089h.107q1.07 0 1.803-1.142.696-1 .696-3.463zm-1.928.696q.857 0 1.375-.875.517-.874.535-2.374 0-1.392-.143-2-.035-.178-.107-.356-.071-.179-.25-.464-.178-.286-.535-.482-.357-.196-.84-.179-.678 0-1.16.482-.374.393-.481.929-.108.535-.125 1.874 0 1.481.089 1.999.09.518.357.839.446.607 1.285.607zM272.247 123.683q-.857 1.356-2.142 1.356-1.392 0-2.285-1.053-.892-1.053-1.07-2.249-.037-.286-.037-.714v-.143q0-1.66 1.232-2.891 1.071-1.071 2.356-1.071h.107q.072 0 .143.017h.072q.214 0 .446.036t.66.214q.429.179.84.571.41.393.767 1.054.767 1.57.767 4.034 0 2.499-1.07 4.23-.625 1-1.5 1.553-.875.553-1.857.571-1.088 0-1.785-.517-.696-.518-.714-1.535-.017-1.018.947-1 .392 0 .66.25t.268.696q0 .321-.16.553-.162.232-.287.286-.124.054-.232.09l-.071.017q0 .036.125.107.125.072.464.179.34.107.75.089h.107q1.07 0 1.803-1.142.696-1 .696-3.463zm-1.928.696q.857 0 1.375-.875.517-.874.535-2.374 0-1.392-.143-2-.035-.178-.107-.356-.071-.179-.25-.464-.178-.286-.535-.482-.357-.196-.84-.179-.678 0-1.16.482-.374.393-.481.929-.108.535-.125 1.874 0 1.481.089 1.999.09.518.357.839.446.607 1.285.607zM283.475 112.098q0-.428.303-.75.303-.321.768-.321.428 0 .75.286.32.285.338.767 0 .446-.303.768-.304.321-.768.321t-.767-.303q-.304-.304-.321-.768zM293.167 112.634h28.935v-1.071h-28.935zM298.04 94.177l-.232.089q-.25.09-.714.178-.464.09-1.035.125h-.34v-.82h.34q.839-.036 1.553-.269.714-.232 1-.428.285-.196.5-.393.035-.053.213-.053.161 0 .304.107v5.337l.018 5.355q.125.125.214.16.09.036.428.072.34.036 1.107.036h.464v.82h-.196q-.375-.053-2.838-.053-2.428 0-2.803.054h-.214v-.821H296.95q.286 0 .447-.018.16-.018.285-.054.125-.035.143-.035.018 0 .107-.09.09-.089.107-.07zM304.877 94.052q1-1.446 2.73-1.446.858 0 1.714.464.857.464 1.393 1.642.66 1.482.66 4.07 0 2.767-.767 4.23-.357.75-.982 1.196-.625.447-1.09.554-.463.107-.91.125-.464 0-.928-.107-.464-.108-1.088-.572-.625-.464-.982-1.196-.768-1.463-.768-4.23 0-3.106 1.018-4.73zm4.016-.215q-.536-.57-1.267-.57-.75 0-1.286.57-.446.465-.589 1.286-.142.82-.142 3.427 0 2.82.142 3.713.143.892.643 1.41.5.535 1.232.535.714 0 1.213-.535.518-.536.643-1.5.125-.963.143-3.623 0-2.588-.143-3.41-.143-.82-.59-1.303zM313.82 94.052q1-1.446 2.73-1.446.857 0 1.714.464t1.392 1.642q.66 1.482.66 4.07 0 2.767-.767 4.23-.357.75-.981 1.196-.625.447-1.09.554-.463.107-.91.125-.464 0-.928-.107-.464-.108-1.089-.572-.624-.464-.981-1.196-.768-1.463-.768-4.23 0-3.106 1.018-4.73zm4.016-.215q-.536-.57-1.268-.57-.75 0-1.285.57-.446.465-.589 1.286-.143.82-.143 3.427 0 2.82.143 3.713.143.892.643 1.41.5.535 1.231.535.714 0 1.214-.535.518-.536.643-1.5.125-.963.143-3.623 0-2.588-.143-3.41-.143-.82-.59-1.303zM298.04 118.488l-.232.09q-.25.089-.714.178-.464.09-1.035.125h-.34v-.821h.34q.839-.036 1.553-.268t1-.428q.285-.197.5-.393.035-.053.213-.053.161 0 .304.107v5.337l.018 5.355q.125.125.214.16.09.036.428.072.34.036 1.107.036h.464v.82h-.196q-.375-.053-2.838-.053-2.428 0-2.803.054h-.214v-.821H296.95q.286 0 .447-.018.16-.018.285-.054.125-.036.143-.036.018 0 .107-.089.09-.09.107-.071zM304.877 118.363q1-1.445 2.73-1.445.858 0 1.714.464.857.464 1.393 1.642.66 1.481.66 4.07 0 2.766-.767 4.23-.357.75-.982 1.196-.625.446-1.09.553-.463.107-.91.125-.464 0-.928-.107t-1.088-.571q-.625-.464-.982-1.196-.768-1.464-.768-4.23 0-3.106 1.018-4.73zm4.016-.214q-.536-.571-1.267-.571-.75 0-1.286.571-.446.464-.589 1.285-.142.821-.142 3.428 0 2.82.142 3.712.143.893.643 1.41.5.536 1.232.536.714 0 1.213-.535.518-.536.643-1.5t.143-3.623q0-2.589-.143-3.41-.143-.82-.59-1.303zM313.82 118.363q1-1.445 2.73-1.445.857 0 1.714.464t1.392 1.642q.66 1.481.66 4.07 0 2.766-.767 4.23-.357.75-.981 1.196-.625.446-1.09.553-.463.107-.91.125-.464 0-.928-.107t-1.089-.571q-.624-.464-.981-1.196-.768-1.464-.768-4.23 0-3.106 1.018-4.73zm4.016-.214q-.536-.571-1.268-.571-.75 0-1.285.571-.446.464-.589 1.285-.143.821-.143 3.428 0 2.82.143 3.712.143.893.643 1.41.5.536 1.231.536.714 0 1.214-.535.518-.536.643-1.5t.143-3.623q0-2.589-.143-3.41-.143-.82-.59-1.303zM332.687 112.33v-.232q0-.232.25-.357h10.37q.268.143.268.357t-.267.357h-10.371q-.25-.125-.25-.357zM354.16 112.634h28.935v-1.071h-28.934zM367.959 94.177l-.232.089q-.25.09-.714.178-.465.09-1.036.125h-.339v-.82h.34q.838-.036 1.552-.269.714-.232 1-.428.285-.196.5-.393.035-.053.214-.053.16 0 .303.107v5.337l.018 5.355q.125.125.214.16.09.036.429.072.339.036 1.106.036h.464v.82h-.196q-.375-.053-2.838-.053-2.428 0-2.802.054h-.215v-.821h1.143q.285 0 .446-.018.16-.018.286-.054.125-.035.142-.035.018 0 .107-.09.09-.089.108-.07zM359.034 118.488l-.232.09q-.25.089-.714.178-.465.09-1.036.125h-.339v-.821h.34q.838-.036 1.552-.268.714-.232 1-.428.285-.197.5-.393.035-.053.214-.053.16 0 .303.107v5.337l.018 5.355q.125.125.214.16.09.036.429.072.339.036 1.106.036h.464v.82h-.196q-.375-.053-2.838-.053-2.428 0-2.802.054h-.215v-.821h1.143q.285 0 .446-.018.16-.018.286-.054.125-.036.142-.036.018 0 .107-.089.09-.09.108-.071zM365.87 118.363q1-1.445 2.731-1.445.857 0 1.714.464t1.392 1.642q.66 1.481.66 4.07 0 2.766-.767 4.23-.357.75-.982 1.196-.625.446-1.089.553-.464.107-.91.125-.464 0-.928-.107t-1.089-.571q-.625-.464-.982-1.196-.767-1.464-.767-4.23 0-3.106 1.017-4.73zm4.016-.214q-.535-.571-1.267-.571-.75 0-1.285.571-.446.464-.59 1.285-.142.821-.142 3.428 0 2.82.143 3.712.143.893.642 1.41.5.536 1.232.536.714 0 1.214-.535.517-.536.642-1.5t.143-3.623q0-2.589-.143-3.41-.142-.82-.589-1.303zM374.813 118.363q1-1.445 2.731-1.445.857 0 1.714.464.856.464 1.392 1.642.66 1.481.66 4.07 0 2.766-.767 4.23-.357.75-.982 1.196-.625.446-1.089.553-.464.107-.91.125-.464 0-.928-.107t-1.09-.571q-.624-.464-.98-1.196-.768-1.464-.768-4.23 0-3.106 1.017-4.73zm4.016-.214q-.535-.571-1.267-.571-.75 0-1.285.571-.447.464-.59 1.285-.142.821-.142 3.428 0 2.82.143 3.712.142.893.642 1.41.5.536 1.232.536.714 0 1.214-.535.517-.536.642-1.5t.143-3.623q0-2.589-.143-3.41-.143-.82-.589-1.303zM390.61 112.098q0-.428.304-.75.303-.321.767-.321.429 0 .75.286.321.285.34.767 0 .446-.304.768-.304.321-.768.321t-.767-.303q-.304-.304-.322-.768zM400.303 112.634h20.01v-1.071h-20.01zM407.657 99.371q-.857 1.357-2.142 1.357-1.392 0-2.285-1.054-.892-1.053-1.07-2.249-.037-.285-.037-.714v-.142q0-1.66 1.232-2.892 1.071-1.071 2.356-1.071h.107q.072 0 .143.018h.072q.214 0 .446.035.232.036.66.215.429.178.84.57.41.393.767 1.054.767 1.57.767 4.034 0 2.499-1.07 4.23-.625 1-1.5 1.553-.875.554-1.856.572-1.09 0-1.785-.518-.697-.518-.714-1.535-.018-1.018.946-1 .392 0 .66.25t.268.696q0 .322-.16.554-.161.232-.286.285-.125.054-.232.09l-.072.017q0 .036.125.107.125.072.464.179.34.107.75.09h.107q1.071 0 1.803-1.143.696-1 .696-3.463zm-1.928.696q.857 0 1.375-.875.517-.874.535-2.374 0-1.392-.143-1.999-.035-.178-.107-.357-.071-.178-.25-.464-.178-.285-.535-.482-.357-.196-.84-.178-.677 0-1.16.482-.374.392-.481.928-.107.535-.125 1.874 0 1.482.089 2 .09.517.357.838.446.607 1.285.607zM416.582 99.371q-.857 1.357-2.142 1.357-1.392 0-2.285-1.054-.892-1.053-1.07-2.249-.037-.285-.037-.714v-.142q0-1.66 1.232-2.892 1.071-1.071 2.356-1.071h.107q.072 0 .143.018h.072q.214 0 .446.035.232.036.66.215.429.178.84.57.41.393.767 1.054.767 1.57.767 4.034 0 2.499-1.07 4.23-.625 1-1.5 1.553-.875.554-1.856.572-1.09 0-1.785-.518-.697-.518-.714-1.535-.018-1.018.946-1 .392 0 .66.25t.268.696q0 .322-.16.554-.161.232-.286.285-.125.054-.232.09l-.072.017q0 .036.125.107.125.072.464.179.34.107.75.09h.107q1.071 0 1.803-1.143.696-1 .696-3.463zm-1.928.696q.857 0 1.375-.875.517-.874.535-2.374 0-1.392-.143-1.999-.035-.178-.107-.357-.071-.178-.25-.464-.178-.285-.535-.482-.357-.196-.84-.178-.677 0-1.16.482-.374.392-.481.928-.107.535-.125 1.874 0 1.482.089 2 .09.517.357.838.446.607 1.285.607zM407.657 123.683q-.857 1.356-2.142 1.356-1.392 0-2.285-1.053-.892-1.053-1.07-2.249-.037-.286-.037-.714v-.143q0-1.66 1.232-2.891 1.071-1.071 2.356-1.071h.107q.072 0 .143.017h.072q.214 0 .446.036t.66.214q.429.179.84.571.41.393.767 1.054.767 1.57.767 4.034 0 2.499-1.07 4.23-.625 1-1.5 1.553-.875.553-1.856.571-1.09 0-1.785-.517-.697-.518-.714-1.535-.018-1.018.946-1 .392 0 .66.25t.268.696q0 .321-.16.553-.161.232-.286.286-.125.054-.232.09l-.072.017q0 .036.125.107.125.072.464.179.34.107.75.089h.107q1.071 0 1.803-1.142.696-1 .696-3.463zm-1.928.696q.857 0 1.375-.875.517-.874.535-2.374 0-1.392-.143-2-.035-.178-.107-.356-.071-.179-.25-.464-.178-.286-.535-.482-.357-.196-.84-.179-.677 0-1.16.482-.374.393-.481.929-.107.535-.125 1.874 0 1.481.089 1.999.09.518.357.839.446.607 1.285.607zM416.582 123.683q-.857 1.356-2.142 1.356-1.392 0-2.285-1.053-.892-1.053-1.07-2.249-.037-.286-.037-.714v-.143q0-1.66 1.232-2.891 1.071-1.071 2.356-1.071h.107q.072 0 .143.017h.072q.214 0 .446.036t.66.214q.429.179.84.571.41.393.767 1.054.767 1.57.767 4.034 0 2.499-1.07 4.23-.625 1-1.5 1.553-.875.553-1.856.571-1.09 0-1.785-.517-.697-.518-.714-1.535-.018-1.018.946-1 .392 0 .66.25t.268.696q0 .321-.16.553-.161.232-.286.286-.125.054-.232.09l-.072.017q0 .036.125.107.125.072.464.179.34.107.75.089h.107q1.071 0 1.803-1.142.696-1 .696-3.463zm-1.928.696q.857 0 1.375-.875.517-.874.535-2.374 0-1.392-.143-2-.035-.178-.107-.356-.071-.179-.25-.464-.178-.286-.535-.482-.357-.196-.84-.179-.677 0-1.16.482-.374.393-.481.929-.107.535-.125 1.874 0 1.481.089 1.999.09.518.357.839.446.607 1.285.607zM235.958 155.152q0-.232.25-.357h11.37q.268.143.268.357 0 .197-.25.34l-5.676.017h-5.677q-.285-.089-.285-.357zm0 3.463q0-.268.285-.357h11.353q.25.179.25.357 0 .232-.268.357h-11.37q-.25-.125-.25-.357zM255.968 157.42h59.708v-1.072h-59.708zM276.21 138.962l-.232.09q-.25.089-.714.178-.465.09-1.036.125h-.339v-.821h.34q.838-.036 1.552-.268.714-.232 1-.428.285-.197.5-.393.035-.054.214-.054.16 0 .303.108v5.337l.018 5.355q.125.125.214.16.09.036.429.072.339.035 1.106.035h.464v.822h-.196q-.375-.054-2.838-.054-2.428 0-2.802.054h-.215v-.822h1.143q.285 0 .446-.017.16-.018.286-.054.125-.036.142-.036.018 0 .107-.089.09-.09.108-.071zM283.046 138.837q1-1.446 2.731-1.446.857 0 1.714.465.857.464 1.392 1.642.66 1.481.66 4.07 0 2.766-.767 4.23-.357.75-.982 1.196-.625.446-1.089.553-.464.107-.91.125-.464 0-.928-.107t-1.089-.571q-.625-.464-.982-1.196-.767-1.464-.767-4.23 0-3.106 1.017-4.73zm4.016-.214q-.535-.571-1.267-.571-.75 0-1.285.571-.446.464-.59 1.285-.142.821-.142 3.428 0 2.82.143 3.712.143.893.642 1.41.5.536 1.232.536.714 0 1.214-.536.517-.535.642-1.499.125-.964.143-3.623 0-2.589-.143-3.41-.142-.82-.589-1.303zM291.989 138.837q1-1.446 2.731-1.446.857 0 1.714.465.856.464 1.392 1.642.66 1.481.66 4.07 0 2.766-.767 4.23-.357.75-.982 1.196-.625.446-1.089.553-.464.107-.91.125-.464 0-.928-.107t-1.09-.571q-.624-.464-.98-1.196-.768-1.464-.768-4.23 0-3.106 1.017-4.73zm4.016-.214q-.535-.571-1.267-.571-.75 0-1.285.571-.447.464-.59 1.285-.142.821-.142 3.428 0 2.82.143 3.712.142.893.642 1.41.5.536 1.232.536.714 0 1.214-.536.517-.535.642-1.499.125-.964.143-3.623 0-2.589-.143-3.41-.143-.82-.589-1.303zM263.322 168.468q-.857 1.357-2.142 1.357-1.392 0-2.285-1.053-.892-1.053-1.07-2.25-.037-.285-.037-.713v-.143q0-1.66 1.232-2.892 1.071-1.07 2.356-1.07h.107q.072 0 .143.017h.072q.214 0 .446.036.232.035.66.214.429.178.84.571.41.393.767 1.053.767 1.571.767 4.034 0 2.5-1.07 4.23-.625 1-1.5 1.554-.875.553-1.857.571-1.088 0-1.785-.518-.696-.517-.714-1.535-.017-1.017.947-1 .392 0 .66.25t.268.697q0 .321-.16.553-.162.232-.287.286-.124.053-.232.089l-.071.018q0 .035.125.107.125.071.464.178.34.107.75.09h.107q1.07 0 1.803-1.143.696-1 .696-3.463zm-1.928.696q.857 0 1.375-.874.517-.875.535-2.374 0-1.393-.143-2-.035-.178-.107-.356-.071-.179-.25-.465-.178-.285-.535-.481-.357-.197-.84-.179-.678 0-1.16.482-.374.393-.481.928-.108.536-.125 1.874 0 1.482.089 2 .09.517.357.839.446.606 1.285.606zM272.247 168.468q-.857 1.357-2.142 1.357-1.392 0-2.285-1.053-.892-1.053-1.07-2.25-.037-.285-.037-.713v-.143q0-1.66 1.232-2.892 1.071-1.07 2.356-1.07h.107q.072 0 .143.017h.072q.214 0 .446.036.232.035.66.214.429.178.84.571.41.393.767 1.053.767 1.571.767 4.034 0 2.5-1.07 4.23-.625 1-1.5 1.554-.875.553-1.857.571-1.088 0-1.785-.518-.696-.517-.714-1.535-.017-1.017.947-1 .392 0 .66.25t.268.697q0 .321-.16.553-.162.232-.287.286-.124.053-.232.089l-.071.018q0 .035.125.107.125.071.464.178.34.107.75.09h.107q1.07 0 1.803-1.143.696-1 .696-3.463zm-1.928.696q.857 0 1.375-.874.517-.875.535-2.374 0-1.393-.143-2-.035-.178-.107-.356-.071-.179-.25-.465-.178-.285-.535-.481-.357-.197-.84-.179-.678 0-1.16.482-.374.393-.481.928-.108.536-.125 1.874 0 1.482.089 2 .09.517.357.839.446.606 1.285.606zM280.262 169.129q0-.429.303-.75t.768-.321q.428 0 .75.285.32.286.338.768 0 .446-.303.767-.304.322-.768.322t-.767-.304q-.304-.303-.321-.767zM291.596 163.274l-.232.09q-.25.088-.714.178-.464.089-1.035.125h-.34v-.821h.34q.839-.036 1.553-.268t1-.429q.285-.196.5-.392.035-.054.213-.054.161 0 .304.107v5.337l.018 5.355q.125.125.214.161.09.036.428.071.34.036 1.107.036h.464v.821h-.196q-.375-.053-2.838-.053-2.428 0-2.803.053h-.214v-.82H290.507q.286 0 .447-.019.16-.018.285-.053.125-.036.143-.036.018 0 .107-.09.09-.088.107-.07zM298.433 163.149q1-1.446 2.73-1.446.858 0 1.714.464.857.464 1.393 1.642.66 1.482.66 4.07 0 2.767-.767 4.23-.357.75-.982 1.197-.625.446-1.089.553-.464.107-.91.125-.464 0-.928-.107-.465-.107-1.09-.571-.624-.464-.981-1.196-.768-1.464-.768-4.23 0-3.107 1.018-4.731zm4.016-.214q-.535-.571-1.267-.571-.75 0-1.285.57-.447.465-.59 1.286-.142.821-.142 3.427 0 2.82.142 3.713.143.893.643 1.41.5.536 1.232.536.714 0 1.214-.536.517-.535.642-1.5.125-.963.143-3.623 0-2.588-.143-3.41-.143-.82-.589-1.302zM307.376 163.149q1-1.446 2.73-1.446.858 0 1.714.464.857.464 1.393 1.642.66 1.482.66 4.07 0 2.767-.767 4.23-.357.75-.982 1.197-.625.446-1.09.553-.463.107-.91.125-.464 0-.928-.107t-1.088-.571q-.625-.464-.982-1.196-.768-1.464-.768-4.23 0-3.107 1.018-4.731zm4.016-.214q-.536-.571-1.267-.571-.75 0-1.286.57-.446.465-.589 1.286-.142.821-.142 3.427 0 2.82.142 3.713.143.893.643 1.41.5.536 1.232.536.714 0 1.213-.536.518-.535.643-1.5.125-.963.143-3.623 0-2.588-.143-3.41-.143-.82-.59-1.302zM323.28 157.116v-.232q0-.232.25-.357h10.37q.269.142.269.357 0 .214-.268.357H323.53q-.25-.125-.25-.357zM341.79 157.42H401.5v-1.072H341.79zM368.994 144.157q-.857 1.356-2.142 1.356-1.392 0-2.285-1.053-.892-1.053-1.07-2.249-.037-.286-.037-.714v-.143q0-1.66 1.232-2.892 1.071-1.07 2.356-1.07h.107q.072 0 .143.017h.072q.214 0 .446.036t.66.214q.429.179.84.571.41.393.767 1.054.767 1.57.767 4.034 0 2.499-1.07 4.23-.625 1-1.5 1.553-.875.553-1.857.571-1.088 0-1.785-.517-.696-.518-.714-1.535-.017-1.018.947-1 .392 0 .66.25t.268.696q0 .321-.16.553-.162.232-.287.286-.124.053-.232.09l-.071.017q0 .036.125.107.125.072.464.179.34.107.75.089h.107q1.07 0 1.803-1.143.696-1 .696-3.462zm-1.928.696q.857 0 1.375-.875.517-.875.535-2.374 0-1.392-.143-2-.035-.178-.107-.356-.071-.179-.25-.464-.178-.286-.535-.482-.357-.197-.84-.179-.678 0-1.16.482-.374.393-.481.928-.108.536-.125 1.875 0 1.481.089 1.999.09.518.357.839.446.607 1.285.607zM377.919 144.157q-.857 1.356-2.142 1.356-1.392 0-2.285-1.053-.892-1.053-1.07-2.249-.037-.286-.037-.714v-.143q0-1.66 1.232-2.892 1.071-1.07 2.356-1.07h.107q.072 0 .143.017h.072q.214 0 .446.036t.66.214q.429.179.84.571.41.393.767 1.054.767 1.57.767 4.034 0 2.499-1.07 4.23-.625 1-1.5 1.553-.875.553-1.857.571-1.088 0-1.785-.517-.696-.518-.714-1.535-.017-1.018.947-1 .392 0 .66.25t.268.696q0 .321-.16.553-.162.232-.287.286-.124.053-.232.09l-.071.017q0 .036.125.107.125.072.464.179.34.107.75.089h.107q1.07 0 1.803-1.143.696-1 .696-3.462zm-1.928.696q.857 0 1.375-.875.517-.875.535-2.374 0-1.392-.143-2-.035-.178-.107-.356-.071-.179-.25-.464-.178-.286-.535-.482-.357-.197-.84-.179-.678 0-1.16.482-.374.393-.481.928-.108.536-.125 1.875 0 1.481.089 1.999.09.518.357.839.446.607 1.285.607zM349.145 168.468q-.857 1.357-2.142 1.357-1.393 0-2.285-1.053-.893-1.053-1.071-2.25-.036-.285-.036-.713v-.143q0-1.66 1.232-2.892 1.07-1.07 2.356-1.07h.107q.072 0 .143.017h.071q.215 0 .447.036.232.035.66.214.428.178.839.571.41.393.768 1.053.767 1.571.767 4.034 0 2.5-1.07 4.23-.626 1-1.5 1.554-.875.553-1.857.571-1.089 0-1.785-.518-.696-.517-.714-1.535-.018-1.017.946-1 .393 0 .66.25.269.25.269.697 0 .321-.161.553-.16.232-.286.286-.125.053-.232.089l-.071.018q0 .035.125.107.125.071.464.178t.75.09h.107q1.07 0 1.803-1.143.696-1 .696-3.463zm-1.928.696q.857 0 1.374-.874.518-.875.536-2.374 0-1.393-.143-2-.036-.178-.107-.356-.071-.179-.25-.465-.178-.285-.535-.481-.357-.197-.84-.179-.678 0-1.16.482-.375.393-.482.928-.107.536-.125 1.874 0 1.482.09 2 .089.517.357.839.446.606 1.285.606zM358.07 168.468q-.857 1.357-2.142 1.357-1.393 0-2.285-1.053-.893-1.053-1.071-2.25-.036-.285-.036-.713v-.143q0-1.66 1.232-2.892 1.07-1.07 2.356-1.07h.107q.072 0 .143.017h.071q.215 0 .447.036.232.035.66.214.428.178.839.571.41.393.768 1.053.767 1.571.767 4.034 0 2.5-1.07 4.23-.626 1-1.5 1.554-.875.553-1.857.571-1.089 0-1.785-.518-.696-.517-.714-1.535-.018-1.017.946-1 .393 0 .66.25.269.25.269.697 0 .321-.161.553-.16.232-.286.286-.125.053-.232.089l-.071.018q0 .035.125.107.125.071.464.178t.75.09h.107q1.07 0 1.803-1.143.696-1 .696-3.463zm-1.928.696q.857 0 1.374-.874.518-.875.536-2.374 0-1.393-.143-2-.036-.178-.107-.356-.071-.179-.25-.465-.178-.285-.535-.481-.357-.197-.84-.179-.678 0-1.16.482-.375.393-.482.928-.107.536-.125 1.874 0 1.482.09 2 .089.517.357.839.446.606 1.285.606zM366.084 169.129q0-.429.304-.75.303-.321.767-.321.429 0 .75.285.321.286.34.768 0 .446-.304.767-.304.322-.768.322t-.767-.304q-.304-.303-.322-.767zM377.42 163.274l-.233.09q-.25.088-.714.178-.464.089-1.035.125h-.34v-.821h.34q.839-.036 1.553-.268t1-.429q.285-.196.5-.392.035-.054.213-.054.16 0 .304.107v5.337l.018 5.355q.125.125.214.161.089.036.428.071.34.036 1.107.036h.464v.821h-.196q-.375-.053-2.839-.053-2.427 0-2.802.053h-.214v-.82H376.33q.286 0 .446-.019.161-.018.286-.053.125-.036.143-.036.018 0 .107-.09.09-.088.107-.07zM384.256 163.149q1-1.446 2.73-1.446.857 0 1.714.464t1.393 1.642q.66 1.482.66 4.07 0 2.767-.768 4.23-.357.75-.981 1.197-.625.446-1.09.553-.463.107-.91.125-.464 0-.928-.107t-1.089-.571q-.624-.464-.981-1.196-.768-1.464-.768-4.23 0-3.107 1.018-4.731zm4.016-.214q-.536-.571-1.267-.571-.75 0-1.286.57-.446.465-.589 1.286-.143.821-.143 3.427 0 2.82.143 3.713.143.893.643 1.41.5.536 1.232.536.714 0 1.213-.536.518-.535.643-1.5.125-.963.143-3.623 0-2.588-.143-3.41-.143-.82-.59-1.302zM393.198 163.149q1-1.446 2.732-1.446.856 0 1.713.464.857.464 1.392 1.642.66 1.482.66 4.07 0 2.767-.767 4.23-.357.75-.981 1.197-.625.446-1.09.553-.463.107-.91.125-.464 0-.928-.107t-1.089-.571q-.624-.464-.981-1.196-.768-1.464-.768-4.23 0-3.107 1.017-4.731zm4.017-.214q-.536-.571-1.268-.571-.75 0-1.285.57-.446.465-.589 1.286-.143.821-.143 3.427 0 2.82.143 3.713.143.893.643 1.41.5.536 1.231.536.714 0 1.214-.536.518-.535.643-1.5.125-.963.143-3.623 0-2.588-.143-3.41-.143-.82-.59-1.302zM235.958 199.938q0-.232.25-.357h11.37q.268.143.268.357 0 .196-.25.339l-5.676.018h-5.677q-.285-.09-.285-.357zm0 3.463q0-.268.285-.357h11.353q.25.178.25.357 0 .232-.268.357h-11.37q-.25-.125-.25-.357zM255.968 202.205h59.708v-1.071h-59.708zM285.152 183.748l-.232.09q-.25.088-.714.178-.464.089-1.035.125h-.34v-.821h.34q.839-.036 1.553-.268t1-.429q.285-.196.5-.392.035-.054.214-.054.16 0 .303.107v5.337l.018 5.355q.125.125.214.161.09.036.429.071.339.036 1.106.036h.464v.821h-.196q-.375-.053-2.838-.053-2.428 0-2.803.053h-.214v-.82h1.143q.285 0 .446-.019.16-.018.285-.053.125-.036.143-.036.018 0 .107-.09.09-.088.107-.07zM263.322 213.254q-.857 1.357-2.142 1.357-1.392 0-2.285-1.054-.892-1.053-1.07-2.249-.037-.285-.037-.714v-.142q0-1.66 1.232-2.892 1.071-1.071 2.356-1.071h.107q.072 0 .143.018h.072q.214 0 .446.035.232.036.66.215.429.178.84.57.41.393.767 1.054.767 1.57.767 4.034 0 2.499-1.07 4.23-.625 1-1.5 1.553-.875.554-1.857.572-1.088 0-1.785-.518-.696-.518-.714-1.535-.017-1.018.947-1 .392 0 .66.25t.268.696q0 .322-.16.554-.162.232-.287.285-.124.054-.232.09l-.071.017q0 .036.125.107.125.072.464.179.34.107.75.09h.107q1.07 0 1.803-1.143.696-1 .696-3.463zm-1.928.696q.857 0 1.375-.875.517-.874.535-2.374 0-1.392-.143-1.999-.035-.178-.107-.357-.071-.178-.25-.464-.178-.285-.535-.482-.357-.196-.84-.178-.678 0-1.16.482-.374.392-.481.928-.108.535-.125 1.874 0 1.482.089 2 .09.517.357.838.446.607 1.285.607zM272.247 213.254q-.857 1.357-2.142 1.357-1.392 0-2.285-1.054-.892-1.053-1.07-2.249-.037-.285-.037-.714v-.142q0-1.66 1.232-2.892 1.071-1.071 2.356-1.071h.107q.072 0 .143.018h.072q.214 0 .446.035.232.036.66.215.429.178.84.57.41.393.767 1.054.767 1.57.767 4.034 0 2.499-1.07 4.23-.625 1-1.5 1.553-.875.554-1.857.572-1.088 0-1.785-.518-.696-.518-.714-1.535-.017-1.018.947-1 .392 0 .66.25t.268.696q0 .322-.16.554-.162.232-.287.285-.124.054-.232.09l-.071.017q0 .036.125.107.125.072.464.179.34.107.75.09h.107q1.07 0 1.803-1.143.696-1 .696-3.463zm-1.928.696q.857 0 1.375-.875.517-.874.535-2.374 0-1.392-.143-1.999-.035-.178-.107-.357-.071-.178-.25-.464-.178-.285-.535-.482-.357-.196-.84-.178-.678 0-1.16.482-.374.392-.481.928-.108.535-.125 1.874 0 1.482.089 2 .09.517.357.838.446.607 1.285.607zM280.262 213.914q0-.428.303-.75.303-.32.768-.32.428 0 .75.285.32.286.338.768 0 .446-.303.767-.304.321-.768.321t-.767-.303q-.304-.303-.321-.768zM291.596 208.06l-.232.089q-.25.09-.714.178-.464.09-1.035.125h-.34v-.82h.34q.839-.036 1.553-.269.714-.232 1-.428.285-.196.5-.393.035-.053.213-.053.161 0 .304.107v5.337l.018 5.355q.125.125.214.16.09.036.428.072.34.036 1.107.036h.464v.82h-.196q-.375-.053-2.838-.053-2.428 0-2.803.054h-.214v-.821H290.507q.286 0 .447-.018.16-.018.285-.054.125-.035.143-.035.018 0 .107-.09.09-.089.107-.07zM298.433 207.935q1-1.446 2.73-1.446.858 0 1.714.464.857.464 1.393 1.642.66 1.482.66 4.07 0 2.767-.767 4.23-.357.75-.982 1.196-.625.447-1.089.554-.464.107-.91.125-.464 0-.928-.107-.465-.108-1.09-.572-.624-.464-.981-1.196-.768-1.463-.768-4.23 0-3.106 1.018-4.73zm4.016-.215q-.535-.57-1.267-.57-.75 0-1.285.57-.447.465-.59 1.286-.142.82-.142 3.427 0 2.82.142 3.713.143.892.643 1.41.5.535 1.232.535.714 0 1.214-.535.517-.536.642-1.5.125-.963.143-3.623 0-2.588-.143-3.41-.143-.82-.589-1.303zM307.376 207.935q1-1.446 2.73-1.446.858 0 1.714.464.857.464 1.393 1.642.66 1.482.66 4.07 0 2.767-.767 4.23-.357.75-.982 1.196-.625.447-1.09.554-.463.107-.91.125-.464 0-.928-.107-.464-.108-1.088-.572-.625-.464-.982-1.196-.768-1.463-.768-4.23 0-3.106 1.018-4.73zm4.016-.215q-.536-.57-1.267-.57-.75 0-1.286.57-.446.465-.589 1.286-.142.82-.142 3.427 0 2.82.142 3.713.143.892.643 1.41.5.535 1.232.535.714 0 1.213-.535.518-.536.643-1.5.125-.963.143-3.623 0-2.588-.143-3.41-.143-.82-.59-1.303z"/></g></svg>