<svg width="451" height="16" viewBox="0 0 451 16" fill="none" xmlns="http://www.w3.org/2000/svg">
<path d="M0.292893 7.29289C-0.0976311 7.68342 -0.0976311 8.31658 0.292893 8.70711L6.65685 15.0711C7.04738 15.4616 7.68054 15.4616 8.07107 15.0711C8.46159 14.6805 8.46159 14.0474 8.07107 13.6569L2.41421 8L8.07107 2.34315C8.46159 1.95262 8.46159 1.31946 8.07107 0.928932C7.68054 0.538408 7.04738 0.538408 6.65685 0.928932L0.292893 7.29289ZM221 9C221.552 9 222 8.55228 222 8C222 7.44772 221.552 7 221 7V9ZM1 8V9H221V8V7H1V8Z" fill="black"/>
<path d="M221 7C220.448 7 220 7.44772 220 8C220 8.55228 220.448 9 221 9V7ZM441.707 8.70711C442.098 8.31658 442.098 7.68342 441.707 7.29289L435.343 0.928932C434.953 0.538408 434.319 0.538408 433.929 0.928932C433.538 1.31946 433.538 1.95262 433.929 2.34315L439.586 8L433.929 13.6569C433.538 14.0474 433.538 14.6805 433.929 15.0711C434.319 15.4616 434.953 15.4616 435.343 15.0711L441.707 8.70711ZM221 8V9H441V8V7H221V8Z" fill="black"/>
</svg>
